<?xml version="1.0" encoding="utf-8"?>
<!-- Generator: Adobe Illustrator 23.0.2, SVG Export Plug-In . SVG Version: 6.00 Build 0)  -->
<svg version="1.1" id="Camada_1" xmlns="http://www.w3.org/2000/svg" xmlns:xlink="http://www.w3.org/1999/xlink" x="0px" y="0px"
	 viewBox="0 0 119.8 121.9" style="enable-background:new 0 0 119.8 121.9;" xml:space="preserve">
<style type="text/css">
	.st0{fill:#FFFFFF;}
	.st1{clip-path:url(#SVGID_13_);}
	.st2{clip-path:url(#SVGID_18_);}
	.st3{clip-path:url(#SVGID_19_);}
	.st4{clip-path:url(#SVGID_25_);}
	.st5{clip-path:url(#SVGID_26_);}
	.st6{clip-path:url(#SVGID_27_);}
	.st7{clip-path:url(#SVGID_34_);}
	.st8{clip-path:url(#SVGID_35_);}
	.st9{clip-path:url(#SVGID_36_);}
	.st10{clip-path:url(#SVGID_37_);}
	.st11{clip-path:url(#SVGID_45_);}
	.st12{clip-path:url(#SVGID_46_);}
	.st13{clip-path:url(#SVGID_47_);}
	.st14{clip-path:url(#SVGID_48_);}
	.st15{clip-path:url(#SVGID_49_);}
	.st16{clip-path:url(#SVGID_58_);}
	.st17{clip-path:url(#SVGID_59_);}
	.st18{clip-path:url(#SVGID_60_);}
	.st19{clip-path:url(#SVGID_61_);}
	.st20{clip-path:url(#SVGID_62_);}
	.st21{clip-path:url(#SVGID_63_);}
	.st22{clip-path:url(#SVGID_73_);}
	.st23{clip-path:url(#SVGID_74_);}
	.st24{clip-path:url(#SVGID_75_);}
	.st25{clip-path:url(#SVGID_76_);}
	.st26{clip-path:url(#SVGID_77_);}
	.st27{clip-path:url(#SVGID_78_);}
	.st28{clip-path:url(#SVGID_79_);}
	.st29{clip-path:url(#SVGID_80_);}
	.st30{fill:#600308;}
	.st31{fill:none;}
</style>
<g>
	<g>
		<g>
			<g>
				<path class="st0" d="M119.8,44.8c0-0.1-0.1-0.2-0.1-0.2v-0.1c0,0-0.1,0-0.2,0c-7.7,0-15.3,0-23,0h-0.4c-0.3-1-0.5-2.4-0.8-3.6
					c0.4,0.1,0.7,0.2,1.1,0.3c2,0.5,3.9,1,5.9,1.4c0.5,0.1,1.1,0.1,1.6,0.1c0.6,0,1.1-0.4,1.4-0.9c0.2-0.4,0.4-0.9,0.5-1.4
					c1.4-5.6,2.8-11.3,4.2-16.9c0.1-0.5,0.2-1,0.2-1.5c0-0.7-0.3-1.2-1-1.5c-0.5-0.2-0.9-0.4-1.4-0.5c-3.2-0.8-6.5-1.6-9.7-2.4
					c-0.5-0.1-1-0.2-1.5-0.2c-0.7,0-1.3,0.4-1.6,1c-0.3,0.7-0.5,1.4-0.7,2.1c-0.6,2.3-1.2,4.7-1.8,7c-0.3,1.1-1,1.8-2.1,2.2
					c-0.5,0.2-0.9,0.4-1.3,0.6c-1.6,0.9-2.3,2.3-2.4,4.1c-0.1,2,0.1,4,0.3,5.9c0.1,0.7,0.1,1.4,0,2c-0.2,0.8-0.6,1.4-1.4,1.8
					c-0.4,0.2-0.9,0.3-1.3,0.4c-1,0.2-1.8,0.8-2.2,1.7c-0.4,0.7-0.7,1.5-1,2.3c-0.2,0.4-0.3,0.9-0.5,1.3c-0.2,0.3-0.3,0.6-0.6,0.9
					c-0.4,0.5-0.9,0.8-1.6,0.7c-0.8-0.1-1.6-0.1-2.4-0.1c-0.5,0-0.9-0.4-1.1-0.9c0-0.1-0.1-0.2-0.1-0.3c-0.2-0.7-0.2-0.7,0.4-1
					c1.4-0.8,2.1-2,2-3.6c-0.1-1,0.2-1.9,0.7-2.8c1.2-1.9,2.2-3.9,2.9-6c1.4-4.5,0.8-8.8-1.5-12.8c-2.6-4.6-6.6-7.4-11.7-8.7
					c-1.2-0.3-2.3-0.5-3.5-0.5c-0.1,0-0.2,0.2-0.2,0h-2.2c-0.6,0.3-1.3,0.1-1.9,0.2c-7.2,1.3-12.3,5.1-14.8,12
					c-1.5,4-1.1,8.1,0.7,12c0.6,1.3,1.3,2.5,2,3.7c0.6,1,0.9,1.9,0.8,3.1c-0.1,1.2,0.4,2.2,1.3,3c0.2,0.1,0.3,0.3,0.4,0.5
					c0.1,0.4,0.2,0.8,0.3,1.1c0.1,0.3,0,0.5-0.2,0.7c-0.4,0.5-0.9,0.7-1.6,0.8c-2.7,0.4-5-0.2-6.9-2.2c-1.1-1.2-1.9-2.6-2.3-4.2
					c-0.5-2-0.9-4.1-1.4-6.2c-0.3-1.2-0.5-2.3-0.8-3.5c-0.3-1-0.7-1.9-1.5-2.6c-1.2-1.1-2.6-1.4-4.1-1.2c-0.6,0.1-1.1,0.3-1.7,0.4
					c0.1,0.1,0.1,0.2,0.2,0.3c0.4,0.6,0.8,1.2,1.2,1.9c0.9,1.3,1.1,2.7,0.7,4.3c-0.4,1.5-0.8,2.9-1.1,4.4c-0.5,2-0.7,4-0.5,6.1
					c0.3,3.2,1.5,5.9,3.7,8.2c0.5,0.5,0.9,1,1.5,1.5c-0.4,0.1-0.7,0.1-1.1,0.2c-0.7,0.1-1.4,0.1-2.1-0.1c-0.8-0.2-1.4-0.6-1.8-1.3
					c-1.2-1.9-1.9-3.9-2-6.1c-0.1-2.4,0-4.7,0.1-7.1c0-1,0.1-2.1-0.2-3.1c-0.4-1.8-1.3-3.3-2.9-4.3c-1.7-1.1-2.6-2.6-3-4.6
					c-0.2-1-0.6-2-1-2.9c-0.6-1.5-1.7-2-3.3-1.7c-1.4,0.3-2.7,0.7-4,1.1c-0.6,0.2-1.2,0.4-1.8,0.6c-1.6,0.7-2.1,1.6-1.8,3.3
					c0.1,0.5,0.2,1.1,0.4,1.6c0.4,1.4,0.3,2.6-0.5,3.9c-0.6,1-0.8,2.1-0.6,3.3c0,0.4,0.2,0.7,0.5,1c1.5,1.6,3.3,2.8,5.1,3.9
					c0.9,0.5,1.7,0.6,2.7,0.4c0.4-0.1,0.7-0.2,1.2-0.2c-1.3,4-2.5,7.9-3.7,11.8c-0.4-0.1-0.8-0.1-1.2-0.2c-1.5-0.2-3-0.5-4.6-0.4
					c-2.7,0.2-5.2,1-7.2,2.9c-1.6,1.5-2.5,3.3-2.7,5.5c0,0.1-0.1,0.2-0.1,0.2v1.5c0,0.4,0.1,0.7,0.2,1.1C0.8,71.6,2.1,73.5,4,75
					c1.1,0.9,2.3,1.7,3.6,2.2c0.1,0,0.2-0.1,0.2,0.3h0.1c-0.1-0.4-0.2-0.9-0.3-1.2c-0.4-1.1-0.8-2.2-1-3.4c-0.1-0.6-0.1-1.2,0-1.8
					c0.2-1.4,1.2-2.3,2.7-2.5c1.2-0.1,2.4,0.1,3.5,0.4c1.5,0.4,2.9,0.9,4.3,1.6c4.1,2.1,8.5,2.9,13.1,2.5c1.6-0.1,3.1-0.1,4.6,0.4
					c0.5,0.2,0.9,0.4,1.3,0.7c2.9,1.9,6,2.7,9.4,2.4c1.6-0.1,3.2-0.4,4.7-0.9c1.8-0.6,3.6-0.8,5.5-0.8c5.4,0,10.8,0,16.2,0
					c2.9,0,5.8,0,8.7,0c5.5,0,11.1,0,16.6,0h0.3c0.1,0.8,0.2,1.1,0.2,1.7c1.1-0.3,2.1-0.5,3.2-0.8c2-0.5,4-0.6,6-0.7
					c2.6-0.1,5.2-0.6,7.6-1.6c1.1-0.4,2-1.1,2.8-1.9c1.7-1.9,2.2-4,1.7-6.5c-0.3-1.3-0.9-2.5-1.7-3.6c-0.8-1.2-1.7-2.3-2.5-3.5
					c-0.1-0.2-0.2-0.3-0.1-0.5C116.7,53.4,118.1,49.1,119.8,44.8z M75.7,45.9c-0.1,1.2-0.8,1.9-2,2c-1.4,0.1-2.7,0.1-4.1,0.1
					c-0.7,0-1.4,0-2-0.1c-1.1-0.1-1.8-0.8-1.9-1.9c-0.1-1.4-0.1-2.8,0-4.1c0.1-1.2,0.8-1.9,2-2c0.9,0,2.1,0,2.7,0l0,0
					c1,0,1.9,0,2.8,0c1.4,0,2.3,0.8,2.4,2.2C75.7,43.3,75.7,44.6,75.7,45.9z M49.6,38.3c-0.5-0.9-0.7-1.9-0.9-2.9
					c-0.3-1.7-0.3-3.3,0-5c0.1-0.3,0.1-0.5,0.2-0.8c0.1-0.2,0.2-0.2,0.4-0.2c0.3,0,0.6,0.1,0.9,0c0.5,0,0.9-0.3,1.1-0.8
					c0.2-0.5,0.1-1-0.3-1.4c-0.3-0.3-0.7-0.5-1.1-0.8c0.1-0.3,0.3-0.7,0.5-1c0.1,0.1,0.1,0.1,0.2,0.2c0.4-0.1,0.8-0.2,1.2-0.3
					c0.7-0.2,0.9-0.8,0.4-1.4c-0.2-0.2-0.3-0.3-0.5-0.5c0.2-0.3,0.4-0.6,0.6-0.9c0.2-0.3,0.6-0.4,1-0.3c0.1,0,0.2,0,0.2,0.1
					c0.5,0.2,0.9-0.1,0.9-0.6c0-0.3-0.1-0.6-0.2-0.9c0.1-0.1,0.3-0.2,0.4-0.4c2.2-1.9,4.7-3.3,7.5-3.9c3-0.6,5.9-0.1,8.7,1.2
					c3.5,1.7,6.3,4.3,8,7.9c2,4.3,1.8,8.6-0.2,12.8c-0.3,0.7-0.7,1.3-1.1,1.9c0,0.1-0.1,0.1-0.1,0.2c0-0.1-0.1-0.1-0.1-0.2
					c-0.7-1.6-1.9-2.4-3.6-2.4c-0.8,0-1.7,0-2.5,0c-1,0-1.9,0-2.9,0c-1.6,0-2.9,0.6-3.8,2.1c-0.1,0.2-0.4,0.4-0.7,0.5
					c-0.5,0.2-1,0.2-1.5,0c-0.4-0.1-0.7-0.3-0.9-0.6c-0.7-1.2-1.9-1.9-3.3-1.9c-2.7-0.1-5.3-0.1-7.9,0.4
					C49.8,38.6,49.7,38.5,49.6,38.3z M50.1,45.8c-0.1-1.3-0.1-2.6,0-3.9c0.1-1.3,0.9-2,2.2-2.1c0.9,0,1.8,0,2.8,0c0.6,0,1.2,0,1.7,0
					c0.3,0,0.7,0,1,0c1.4,0,2.3,0.8,2.3,2.3c0,1.2,0,2.4,0,3.6c0,1.3-0.8,2.2-2.1,2.2c-2,0.1-3.9,0.1-5.9,0
					C50.9,47.8,50.2,47.1,50.1,45.8z M33.3,46c-0.2-1.6,0-3.2,0.2-4.8c0.2-1.3,0.3-2.6,0.4-4c0.1-0.9-0.1-1.7-0.6-2.4
					c-0.3-0.5-0.7-1-1-1.5c0-0.1-0.1-0.1-0.2-0.3c1.8,0.3,3.1,1.3,3.7,3c0.3,0.9,0.5,1.9,0.7,2.9c0.4,2.1,0.6,4.2,1,6.2
					c0.3,1.9,1,3.6,2,5.2c1.3,2,3.2,3.4,5.5,4.1c0.5,0.1,0.5,0.1,0.4,0.7c-3.2,0.3-6.1-0.4-8.6-2.5C34.8,51,33.7,48.7,33.3,46z
					 M11.8,42.6c-0.2-1.1-0.4-2.3-0.6-3.4c0.3-0.1,0.6-0.1,0.9-0.2c0.2,1.1,0.4,2.2,0.6,3.3C12.4,42.5,12.1,42.5,11.8,42.6z
					 M18.7,43.5c-1,0.3-1.9,0.6-2.9,1c-1.3-3.8-2.5-7.6-3.8-11.5c3-0.9,6-1.7,8.9-2.6c0.1,0.5,0.2,1,0.3,1.4c0.4,2.3,0.8,4.6,1.2,7
					c0.1,0.4,0.1,0.9,0.2,1.3c0.1,1.3-0.5,2.3-1.7,2.8C20.2,43.1,19.4,43.2,18.7,43.5z M22.1,70.5c-3.2-1.3-6.4-2.6-9.6-3.9
					c-1.3-0.5-2.6-0.8-3.9-0.8c-1.7,0-3.4,0.7-4.6,2c0.8,0,1.5-0.1,2.2-0.1c-0.4,0.9-1,1.8-1.2,2.7c-0.2,0.9-0.1,2-0.2,3
					c-0.1,0-0.1-0.1-0.2-0.2C3,72,2.2,70.4,1.9,68.5c-0.8-5.1,3.3-8.4,6.7-8.7c1.1-0.1,2.2,0,3.3,0.1c1.3,0.2,2.5,0.4,3.8,0.6
					c0.6,0.1,1,0.6,1.3,1.1c0.5,1.1,0.9,2.3,1.5,3.4c0.8,1.7,2,3.1,3.5,4.4c0.7,0.6,1.5,1.2,2.2,1.8c0.1,0.1,0.1,0.1,0.2,0.2
					C23.5,71.1,22.8,70.8,22.1,70.5z M34.9,64c-0.8,1.6-1.2,3.3-1,5.1c0,0.2,0,0.4,0,0.6c0,0.7-0.5,1.1-1.1,1
					c-0.6,0-1.2-0.2-1.8-0.3c-2.5-0.6-4.9-1.5-7-3.1c-0.9-0.7-1.7-1.4-2.4-2.3c-2.1-2.7-3-5.7-2.9-9c0.2-3.1,1.2-5.9,2.8-8.5
					c0.7-1.2,1.5-2.5,2-3.8c0.7-1.7,1-3.5,0.8-5.3c0-0.1,0-0.2,0-0.3c0.1,0.1,0.2,0.1,0.3,0.1c1.4,0.7,2.2,1.9,2.5,3.4
					c0.2,1.1,0.3,2.3,0.2,3.5c-0.1,2.1-0.3,4.3-0.4,6.4c-0.1,1.5,0,3,0.4,4.5c0.8,2.6,2.6,4.1,5.2,4.5c1.5,0.3,3.1,0.2,4.6-0.1
					c0,0,0.1,0,0.2,0c-0.1,0.1-0.1,0.2-0.2,0.3C36.3,61.7,35.5,62.8,34.9,64z M77.6,56.3c-0.3,0.8-0.6,1.5-0.9,2.3
					c-0.1,0.3-0.5,0.4-0.8,0.2c-0.8-0.5-1.5-0.9-2.3-1.3c-2.7-1.3-5.5-1.8-8.5-1.4c-3.2,0.4-6.1,1.5-8.9,2.8
					c-1.4,0.7-2.8,1.5-4.2,2.1c-1,0.4-2,0.7-3,1.1c0,0,0,0-0.1-0.1c0.2-0.8,0.4-1.5,0.6-2.4c-0.5,0.5-1.2,0.7-1.4,1.4
					c-0.3,0.9-0.6,1.7-0.9,2.6c0.8,0.1,1.6,0.3,2.4,0.4c0.3,0,0.6,0,0.8-0.1c2.8-1.2,5.5-2.4,8.3-3.6c1.6-0.7,3.1-1.3,4.7-1.9
					c3.1-1.1,6.1-0.9,9.1,0.4c0.6,0.3,1.3,0.6,1.9,0.9c0.3,0.1,0.5,0.3,0.6,0.6c0.2,0.4,0.3,0.8,0.5,1.2c-0.9,0.4-1.8,0.5-2.7,0.4
					c-3.1-0.4-6.1-0.1-8.9,1.3c-0.8,0.4-1.6,0.9-2.2,1.5c-0.1,0-0.1,0.1-0.2,0.2c0,0-0.1,0.1-0.1,0.2c1.5-0.5,3.1-0.9,4.7-1.4
					c0,0.1,0,0.1,0,0.1c-2.9,2.6-6,5.1-9.4,7.1c-2.7,1.5-5.6,2.7-8.7,3.1c-2.2,0.3-4.3,0.4-6.5,0c-3.3-0.7-5.2-3.5-4.8-6.8
					c0.2-1.7,0.9-3.3,1.9-4.6c2.1-2.7,4.8-4.9,7.9-6.3c1.3-0.6,2.6-1.1,3.9-1.8c1.5-0.8,2.7-2,3.6-3.5c0.1-0.1,0.1-0.3,0.1-0.4
					c0.1-0.5,0.3-0.6,0.8-0.6c1,0,2,0,3,0c2.3,0,3.9-1.6,4-3.9c0-0.4,0-0.9,0.1-1.3c0.1-0.6,0.4-0.9,1-0.8c0.7,0,1,0.3,1.1,1
					c0,0.6,0,1.3,0.1,1.9c0.3,1.9,1.8,3.2,3.8,3.2c1.5,0,2.9,0,4.4,0c0.6,0,0.9,0.2,1,0.8c0.1,0.7,0.3,1.4,0.5,2.1
					c0.1,0.3,0.2,0.5,0.4,0.7c0.3,0.5,0.8,0.7,1.3,0.7c1.1-0.1,2.1-0.1,3.2-0.2C78.2,54.6,77.9,55.5,77.6,56.3z M89,44.1
					c0-0.6-0.1-0.8-0.1-1.2c-0.2-2.5-0.3-5.1-0.5-7.6c-0.1-1.9,0.7-3.4,2.3-4.4c0.1-0.1,0.3-0.2,0.4-0.3c-0.2,0.6-0.4,1.2-0.6,1.8
					c-0.3,1.5-0.1,2.9,0.4,4.3c0.5,1.3,1,2.5,1.6,3.7c0.4,1,0.8,2.2,1,3.3c0,0.1,0-0.2,0,0.3L89,44.1L89,44.1z M92.3,33.9
					c0.7-2.8,1.4-5.6,2.1-8.4c0.5-1.9,1-3.8,1.6-5.6c0-0.1,0-0.1,0.1-0.2c4.3,1.1,8.5,2.3,12.8,3.4c-1.6,5.8-3.2,11.5-4.7,17.3
					c-0.7-0.2-1.3-0.4-2-0.5c-2.5-0.7-4.9-1.4-7.4-2C92.5,37.2,92,35.3,92.3,33.9z M97.8,59.5c-0.6-0.1-1.1-0.3-1.6-0.5
					c-0.6-0.3-1-1-0.9-1.5c0.1-0.4,0.3-0.7,0.7-0.9c0.3-0.2,0.6-0.4,0.7-0.8c0.1-0.3,0.4-0.5,0.8-0.6c-0.6-0.6-0.7-1-0.5-1.6
					c0.7,0.1,1.3,0.5,1.6,1.2c0.3-0.1,0.6-0.2,1-0.3c0.1,0,0.2,0,0.2,0c0.1,0,0.2,0.1,0.3,0.2c-0.1,0.1-0.2,0.2-0.3,0.2
					c-0.4,0-0.8,0.2-1.1,0.5c0,0,0,0.1,0.1,0.1c0.5,0.4,0.8,0.8,0.6,1.5c-0.1,0.2,0,0.4,0.1,0.6c0.2,0.5,0.4,1,0,1.5
					C98.9,59.4,98.4,59.6,97.8,59.5z M116.5,63.3c1,2.2,1,4.4-0.1,6.6c-0.7,1.2-1.7,2-3.1,2.4c-1.5,0.5-3,0.8-4.5,0.8
					c-3.1,0.1-6.1,0.6-9.1,1.4c-0.1,0-0.2,0-0.3,0.1c0.4-1.2,1.1-2.2,1.9-3c1.1-1.1,2.4-1.8,3.8-2.4c1.5-0.8,3-1.6,4.5-2.4
					c0.4-0.2,0.7-0.5,1.1-0.7c1.7-1.2,3.1-2.8,4-4.8c0,0,0-0.1,0.1-0.2C115.6,61.8,116.1,62.5,116.5,63.3z"/>
				<path class="st0" d="M103,27.9c0.1-0.2,0-0.5-0.2-0.6c-0.3-0.2-0.5-0.1-0.7,0.2c-1.1,1.5-2.1,3-3.2,4.4c-0.1,0.2-0.1,0.3,0,0.5
					c0.1,0.1,0.2,0.2,0.4,0.4c0.2-0.2,0.4-0.3,0.5-0.4c1-1.4,2-2.8,3-4.2C102.9,28.1,102.9,28,103,27.9z"/>
				<path class="st0" d="M105.5,31.4c0.1-0.3-0.1-0.5-0.3-0.7c-0.6-0.6-1.2-1.1-1.8-1.7c-0.1-0.1-0.1-0.1-0.2-0.1
					c-0.2-0.1-0.4-0.1-0.5,0.1c-0.2,0.2-0.3,0.4-0.1,0.6c0.1,0.1,0.2,0.2,0.3,0.3c0.4,0.3,0.7,0.7,1.1,1c-0.6,0.1-1.1,0.1-1.6,0.2
					c-0.4,0.1-0.6,0.3-0.5,0.6c0,0.3,0.2,0.5,0.6,0.4c0.8-0.1,1.6-0.2,2.5-0.3C105.1,31.8,105.4,31.7,105.5,31.4z"/>
				<path class="st0" d="M99.2,30.9c0.2-0.2,0.2-0.4,0.1-0.6c-0.1-0.1-0.2-0.2-0.3-0.3c-0.4-0.3-0.7-0.7-1.1-1c0.1,0,0.2,0,0.3,0
					c0.5-0.1,1-0.1,1.5-0.2c0.3-0.1,0.5-0.3,0.4-0.6c0-0.3-0.2-0.5-0.6-0.4c-0.9,0.1-1.7,0.2-2.6,0.4c-0.2,0-0.5,0.2-0.6,0.4
					c-0.1,0.2,0,0.5,0.2,0.6c0,0,0.1,0.1,0.1,0.1c0.6,0.5,1.2,1.1,1.8,1.6c0.1,0.1,0.1,0.1,0.2,0.2C98.8,31.1,99,31.1,99.2,30.9z"/>
				<path class="st0" d="M18.5,37.7L18.5,37.7C18.5,37.7,18.5,37.7,18.5,37.7C18.5,37.7,18.5,37.7,18.5,37.7L18.5,37.7z"/>
			</g>
		</g>
		<g>
			<g>
				<g>
					<polygon id="SVGID_1_" class="st0" points="15,92 13.1,93.8 13.1,99 15,100.9 19.2,100.9 19.2,104 16,104 16,103 13.1,103 
						13.1,105.1 15,106.9 20.3,106.9 22.2,105.1 22.2,99.9 20.3,98 16,98 16,94.8 19.2,94.8 19.2,95.9 22.2,95.9 22.2,93.8 20.3,92 
											"/>
				</g>
				<g>
					<path id="SVGID_2_" class="st0" d="M25.3,92l-1.9,1.9v11.2l1.9,1.9h5.3l1.9-1.9V93.8L30.6,92H25.3z M29.5,94.8v9.2h-3.2v-9.2
						H29.5z"/>
				</g>
				<g>
					<polygon id="SVGID_3_" class="st0" points="33.6,94.8 34.7,94.8 34.7,104 33.6,104 33.6,106.9 38.7,106.9 38.7,104 37.6,104 
						37.6,100.9 38.8,100.9 38.8,101.9 41.7,101.9 41.7,97 38.8,97 38.8,98 37.6,98 37.6,94.8 40.8,94.8 40.8,95.9 43.8,95.9 
						43.8,92 33.6,92 					"/>
				</g>
				<g>
					<polygon id="SVGID_4_" class="st0" points="45,95.9 47.9,95.9 47.9,94.8 49.1,94.8 49.1,104 48,104 48,106.9 53,106.9 53,104 
						52,104 52,94.8 53.2,94.8 53.2,95.9 56.1,95.9 56.1,92 45,92 					"/>
				</g>
				<g>
					<polygon id="SVGID_5_" class="st0" points="67.6,94.8 68.5,94.8 67.4,100.1 64.9,95.2 62.5,100.1 61.4,94.8 62.3,94.8 62.3,92 
						57.3,92 57.3,94.8 58.4,94.8 60.3,104 59.3,104 59.3,106.9 64.4,106.9 64.4,104 63.6,104 64.9,101.4 66.3,104 65.5,104 
						65.5,106.9 70.5,106.9 70.5,104 69.6,104 71.5,94.8 72.6,94.8 72.6,92 67.6,92 					"/>
				</g>
				<g>
					<path id="SVGID_6_" class="st0" d="M80.7,92H78L74.9,104h-1.1v2.9h5V104h-0.9l0.3-1.1h2.4l0.3,1.1h-0.9v2.9h5V104h-1.1L80.7,92
						z M78.9,100l0.5-1.8l0.5,1.8H78.9z"/>
				</g>
				<g>
					<path id="SVGID_7_" class="st0" d="M96.2,99.9l-0.4-0.4l0.4-0.4v-5.2l-1.9-1.9h-8.2v2.9h1v9.2h-1v2.9h5V104h-1v-3.1h3.2v3.1h-1
						v2.9h5V104h-1L96.2,99.9L96.2,99.9z M90.1,98v-3.1h3.2V98H90.1z"/>
				</g>
				<g>
					<polygon id="SVGID_8_" class="st0" points="98.4,94.8 99.4,94.8 99.4,104 98.4,104 98.4,106.9 108.6,106.9 108.6,103 
						105.6,103 105.6,104 102.4,104 102.4,100.9 103.6,100.9 103.6,101.9 106.5,101.9 106.5,97 103.6,97 103.6,98 102.4,98 
						102.4,94.8 105.6,94.8 105.6,95.9 108.6,95.9 108.6,92 98.4,92 					"/>
				</g>
				<g>
					<defs>
						<polygon id="SVGID_9_" points="15,92 13.1,93.8 13.1,99 15,100.9 19.2,100.9 19.2,104 16,104 16,103 13.1,103 13.1,105.1 
							15,106.9 20.3,106.9 22.2,105.1 22.2,99.9 20.3,98 16,98 16,94.8 19.2,94.8 19.2,95.9 22.2,95.9 22.2,93.8 20.3,92 						"/>
					</defs>
					<clipPath id="SVGID_10_">
						<use xlink:href="#SVGID_9_"  style="overflow:visible;"/>
					</clipPath>
				</g>
				<g>
					<defs>
						<polygon id="SVGID_11_" points="15,92 13.1,93.8 13.1,99 15,100.9 19.2,100.9 19.2,104 16,104 16,103 13.1,103 13.1,105.1 
							15,106.9 20.3,106.9 22.2,105.1 22.2,99.9 20.3,98 16,98 16,94.8 19.2,94.8 19.2,95.9 22.2,95.9 22.2,93.8 20.3,92 						"/>
					</defs>
					<defs>
						<path id="SVGID_12_" d="M25.3,92l-1.9,1.9v11.2l1.9,1.9h5.3l1.9-1.9V93.8L30.6,92H25.3z M29.5,94.8v9.2h-3.2v-9.2H29.5z"/>
					</defs>
					<clipPath id="SVGID_13_">
						<use xlink:href="#SVGID_11_"  style="overflow:visible;"/>
					</clipPath>
					<clipPath id="SVGID_14_" class="st1">
						<use xlink:href="#SVGID_12_"  style="overflow:visible;"/>
					</clipPath>
				</g>
				<g>
					<defs>
						<polygon id="SVGID_15_" points="15,92 13.1,93.8 13.1,99 15,100.9 19.2,100.9 19.2,104 16,104 16,103 13.1,103 13.1,105.1 
							15,106.9 20.3,106.9 22.2,105.1 22.2,99.9 20.3,98 16,98 16,94.8 19.2,94.8 19.2,95.9 22.2,95.9 22.2,93.8 20.3,92 						"/>
					</defs>
					<defs>
						<path id="SVGID_16_" d="M25.3,92l-1.9,1.9v11.2l1.9,1.9h5.3l1.9-1.9V93.8L30.6,92H25.3z M29.5,94.8v9.2h-3.2v-9.2H29.5z"/>
					</defs>
					<defs>
						<polygon id="SVGID_17_" points="33.6,94.8 34.7,94.8 34.7,104 33.6,104 33.6,106.9 38.7,106.9 38.7,104 37.6,104 37.6,100.9 
							38.8,100.9 38.8,101.9 41.7,101.9 41.7,97 38.8,97 38.8,98 37.6,98 37.6,94.8 40.8,94.8 40.8,95.9 43.8,95.9 43.8,92 33.6,92 
													"/>
					</defs>
					<clipPath id="SVGID_18_">
						<use xlink:href="#SVGID_15_"  style="overflow:visible;"/>
					</clipPath>
					<clipPath id="SVGID_19_" class="st2">
						<use xlink:href="#SVGID_16_"  style="overflow:visible;"/>
					</clipPath>
					<clipPath id="SVGID_20_" class="st3">
						<use xlink:href="#SVGID_17_"  style="overflow:visible;"/>
					</clipPath>
				</g>
				<g>
					<defs>
						<polygon id="SVGID_21_" points="15,92 13.1,93.8 13.1,99 15,100.9 19.2,100.9 19.2,104 16,104 16,103 13.1,103 13.1,105.1 
							15,106.9 20.3,106.9 22.2,105.1 22.2,99.9 20.3,98 16,98 16,94.8 19.2,94.8 19.2,95.9 22.2,95.9 22.2,93.8 20.3,92 						"/>
					</defs>
					<defs>
						<path id="SVGID_22_" d="M25.3,92l-1.9,1.9v11.2l1.9,1.9h5.3l1.9-1.9V93.8L30.6,92H25.3z M29.5,94.8v9.2h-3.2v-9.2H29.5z"/>
					</defs>
					<defs>
						<polygon id="SVGID_23_" points="33.6,94.8 34.7,94.8 34.7,104 33.6,104 33.6,106.9 38.7,106.9 38.7,104 37.6,104 37.6,100.9 
							38.8,100.9 38.8,101.9 41.7,101.9 41.7,97 38.8,97 38.8,98 37.6,98 37.6,94.8 40.8,94.8 40.8,95.9 43.8,95.9 43.8,92 33.6,92 
													"/>
					</defs>
					<defs>
						<polygon id="SVGID_24_" points="45,95.9 47.9,95.9 47.9,94.8 49.1,94.8 49.1,104 48,104 48,106.9 53,106.9 53,104 52,104 
							52,94.8 53.2,94.8 53.2,95.9 56.1,95.9 56.1,92 45,92 						"/>
					</defs>
					<clipPath id="SVGID_25_">
						<use xlink:href="#SVGID_21_"  style="overflow:visible;"/>
					</clipPath>
					<clipPath id="SVGID_26_" class="st4">
						<use xlink:href="#SVGID_22_"  style="overflow:visible;"/>
					</clipPath>
					<clipPath id="SVGID_27_" class="st5">
						<use xlink:href="#SVGID_23_"  style="overflow:visible;"/>
					</clipPath>
					<clipPath id="SVGID_28_" class="st6">
						<use xlink:href="#SVGID_24_"  style="overflow:visible;"/>
					</clipPath>
				</g>
				<g>
					<defs>
						<polygon id="SVGID_29_" points="15,92 13.1,93.8 13.1,99 15,100.9 19.2,100.9 19.2,104 16,104 16,103 13.1,103 13.1,105.1 
							15,106.9 20.3,106.9 22.2,105.1 22.2,99.9 20.3,98 16,98 16,94.8 19.2,94.8 19.2,95.9 22.2,95.9 22.2,93.8 20.3,92 						"/>
					</defs>
					<defs>
						<path id="SVGID_30_" d="M25.3,92l-1.9,1.9v11.2l1.9,1.9h5.3l1.9-1.9V93.8L30.6,92H25.3z M29.5,94.8v9.2h-3.2v-9.2H29.5z"/>
					</defs>
					<defs>
						<polygon id="SVGID_31_" points="33.6,94.8 34.7,94.8 34.7,104 33.6,104 33.6,106.9 38.7,106.9 38.7,104 37.6,104 37.6,100.9 
							38.8,100.9 38.8,101.9 41.7,101.9 41.7,97 38.8,97 38.8,98 37.6,98 37.6,94.8 40.8,94.8 40.8,95.9 43.8,95.9 43.8,92 33.6,92 
													"/>
					</defs>
					<defs>
						<polygon id="SVGID_32_" points="45,95.9 47.9,95.9 47.9,94.8 49.1,94.8 49.1,104 48,104 48,106.9 53,106.9 53,104 52,104 
							52,94.8 53.2,94.8 53.2,95.9 56.1,95.9 56.1,92 45,92 						"/>
					</defs>
					<defs>
						<polygon id="SVGID_33_" points="67.6,94.8 68.5,94.8 67.4,100.1 64.9,95.2 62.5,100.1 61.4,94.8 62.3,94.8 62.3,92 57.3,92 
							57.3,94.8 58.4,94.8 60.3,104 59.3,104 59.3,106.9 64.4,106.9 64.4,104 63.6,104 64.9,101.4 66.3,104 65.5,104 65.5,106.9 
							70.5,106.9 70.5,104 69.6,104 71.5,94.8 72.6,94.8 72.6,92 67.6,92 						"/>
					</defs>
					<clipPath id="SVGID_34_">
						<use xlink:href="#SVGID_29_"  style="overflow:visible;"/>
					</clipPath>
					<clipPath id="SVGID_35_" class="st7">
						<use xlink:href="#SVGID_30_"  style="overflow:visible;"/>
					</clipPath>
					<clipPath id="SVGID_36_" class="st8">
						<use xlink:href="#SVGID_31_"  style="overflow:visible;"/>
					</clipPath>
					<clipPath id="SVGID_37_" class="st9">
						<use xlink:href="#SVGID_32_"  style="overflow:visible;"/>
					</clipPath>
					<clipPath id="SVGID_38_" class="st10">
						<use xlink:href="#SVGID_33_"  style="overflow:visible;"/>
					</clipPath>
				</g>
				<g>
					<defs>
						<polygon id="SVGID_39_" points="15,92 13.1,93.8 13.1,99 15,100.9 19.2,100.9 19.2,104 16,104 16,103 13.1,103 13.1,105.1 
							15,106.9 20.3,106.9 22.2,105.1 22.2,99.9 20.3,98 16,98 16,94.8 19.2,94.8 19.2,95.9 22.2,95.9 22.2,93.8 20.3,92 						"/>
					</defs>
					<defs>
						<path id="SVGID_40_" d="M25.3,92l-1.9,1.9v11.2l1.9,1.9h5.3l1.9-1.9V93.8L30.6,92H25.3z M29.5,94.8v9.2h-3.2v-9.2H29.5z"/>
					</defs>
					<defs>
						<polygon id="SVGID_41_" points="33.6,94.8 34.7,94.8 34.7,104 33.6,104 33.6,106.9 38.7,106.9 38.7,104 37.6,104 37.6,100.9 
							38.8,100.9 38.8,101.9 41.7,101.9 41.7,97 38.8,97 38.8,98 37.6,98 37.6,94.8 40.8,94.8 40.8,95.9 43.8,95.9 43.8,92 33.6,92 
													"/>
					</defs>
					<defs>
						<polygon id="SVGID_42_" points="45,95.9 47.9,95.9 47.9,94.8 49.1,94.8 49.1,104 48,104 48,106.9 53,106.9 53,104 52,104 
							52,94.8 53.2,94.8 53.2,95.9 56.1,95.9 56.1,92 45,92 						"/>
					</defs>
					<defs>
						<polygon id="SVGID_43_" points="67.6,94.8 68.5,94.8 67.4,100.1 64.9,95.2 62.5,100.1 61.4,94.8 62.3,94.8 62.3,92 57.3,92 
							57.3,94.8 58.4,94.8 60.3,104 59.3,104 59.3,106.9 64.4,106.9 64.4,104 63.6,104 64.9,101.4 66.3,104 65.5,104 65.5,106.9 
							70.5,106.9 70.5,104 69.6,104 71.5,94.8 72.6,94.8 72.6,92 67.6,92 						"/>
					</defs>
					<defs>
						<path id="SVGID_44_" d="M80.7,92H78L74.9,104h-1.1v2.9h5V104h-0.9l0.3-1.1h2.4l0.3,1.1h-0.9v2.9h5V104h-1.1L80.7,92z
							 M78.9,100l0.5-1.8l0.5,1.8H78.9z"/>
					</defs>
					<clipPath id="SVGID_45_">
						<use xlink:href="#SVGID_39_"  style="overflow:visible;"/>
					</clipPath>
					<clipPath id="SVGID_46_" class="st11">
						<use xlink:href="#SVGID_40_"  style="overflow:visible;"/>
					</clipPath>
					<clipPath id="SVGID_47_" class="st12">
						<use xlink:href="#SVGID_41_"  style="overflow:visible;"/>
					</clipPath>
					<clipPath id="SVGID_48_" class="st13">
						<use xlink:href="#SVGID_42_"  style="overflow:visible;"/>
					</clipPath>
					<clipPath id="SVGID_49_" class="st14">
						<use xlink:href="#SVGID_43_"  style="overflow:visible;"/>
					</clipPath>
					<clipPath id="SVGID_50_" class="st15">
						<use xlink:href="#SVGID_44_"  style="overflow:visible;"/>
					</clipPath>
				</g>
				<g>
					<defs>
						<polygon id="SVGID_51_" points="15,92 13.1,93.8 13.1,99 15,100.9 19.2,100.9 19.2,104 16,104 16,103 13.1,103 13.1,105.1 
							15,106.9 20.3,106.9 22.2,105.1 22.2,99.9 20.3,98 16,98 16,94.8 19.2,94.8 19.2,95.9 22.2,95.9 22.2,93.8 20.3,92 						"/>
					</defs>
					<defs>
						<path id="SVGID_52_" d="M25.3,92l-1.9,1.9v11.2l1.9,1.9h5.3l1.9-1.9V93.8L30.6,92H25.3z M29.5,94.8v9.2h-3.2v-9.2H29.5z"/>
					</defs>
					<defs>
						<polygon id="SVGID_53_" points="33.6,94.8 34.7,94.8 34.7,104 33.6,104 33.6,106.9 38.7,106.9 38.7,104 37.6,104 37.6,100.9 
							38.8,100.9 38.8,101.9 41.7,101.9 41.7,97 38.8,97 38.8,98 37.6,98 37.6,94.8 40.8,94.8 40.8,95.9 43.8,95.9 43.8,92 33.6,92 
													"/>
					</defs>
					<defs>
						<polygon id="SVGID_54_" points="45,95.9 47.9,95.9 47.9,94.8 49.1,94.8 49.1,104 48,104 48,106.9 53,106.9 53,104 52,104 
							52,94.8 53.2,94.8 53.2,95.9 56.1,95.9 56.1,92 45,92 						"/>
					</defs>
					<defs>
						<polygon id="SVGID_55_" points="67.6,94.8 68.5,94.8 67.4,100.1 64.9,95.2 62.5,100.1 61.4,94.8 62.3,94.8 62.3,92 57.3,92 
							57.3,94.8 58.4,94.8 60.3,104 59.3,104 59.3,106.9 64.4,106.9 64.4,104 63.6,104 64.9,101.4 66.3,104 65.5,104 65.5,106.9 
							70.5,106.9 70.5,104 69.6,104 71.5,94.8 72.6,94.8 72.6,92 67.6,92 						"/>
					</defs>
					<defs>
						<path id="SVGID_56_" d="M80.7,92H78L74.9,104h-1.1v2.9h5V104h-0.9l0.3-1.1h2.4l0.3,1.1h-0.9v2.9h5V104h-1.1L80.7,92z
							 M78.9,100l0.5-1.8l0.5,1.8H78.9z"/>
					</defs>
					<defs>
						<path id="SVGID_57_" d="M96.2,99.9l-0.4-0.4l0.4-0.4v-5.2l-1.9-1.9h-8.2v2.9h1v9.2h-1v2.9h5V104h-1v-3.1h3.2v3.1h-1v2.9h5V104
							h-1L96.2,99.9L96.2,99.9z M90.1,98v-3.1h3.2V98H90.1z"/>
					</defs>
					<clipPath id="SVGID_58_">
						<use xlink:href="#SVGID_51_"  style="overflow:visible;"/>
					</clipPath>
					<clipPath id="SVGID_59_" class="st16">
						<use xlink:href="#SVGID_52_"  style="overflow:visible;"/>
					</clipPath>
					<clipPath id="SVGID_60_" class="st17">
						<use xlink:href="#SVGID_53_"  style="overflow:visible;"/>
					</clipPath>
					<clipPath id="SVGID_61_" class="st18">
						<use xlink:href="#SVGID_54_"  style="overflow:visible;"/>
					</clipPath>
					<clipPath id="SVGID_62_" class="st19">
						<use xlink:href="#SVGID_55_"  style="overflow:visible;"/>
					</clipPath>
					<clipPath id="SVGID_63_" class="st20">
						<use xlink:href="#SVGID_56_"  style="overflow:visible;"/>
					</clipPath>
					<clipPath id="SVGID_64_" class="st21">
						<use xlink:href="#SVGID_57_"  style="overflow:visible;"/>
					</clipPath>
				</g>
				<g>
					<defs>
						<polygon id="SVGID_65_" points="15,92 13.1,93.8 13.1,99 15,100.9 19.2,100.9 19.2,104 16,104 16,103 13.1,103 13.1,105.1 
							15,106.9 20.3,106.9 22.2,105.1 22.2,99.9 20.3,98 16,98 16,94.8 19.2,94.8 19.2,95.9 22.2,95.9 22.2,93.8 20.3,92 						"/>
					</defs>
					<defs>
						<path id="SVGID_66_" d="M25.3,92l-1.9,1.9v11.2l1.9,1.9h5.3l1.9-1.9V93.8L30.6,92H25.3z M29.5,94.8v9.2h-3.2v-9.2H29.5z"/>
					</defs>
					<defs>
						<polygon id="SVGID_67_" points="33.6,94.8 34.7,94.8 34.7,104 33.6,104 33.6,106.9 38.7,106.9 38.7,104 37.6,104 37.6,100.9 
							38.8,100.9 38.8,101.9 41.7,101.9 41.7,97 38.8,97 38.8,98 37.6,98 37.6,94.8 40.8,94.8 40.8,95.9 43.8,95.9 43.8,92 33.6,92 
													"/>
					</defs>
					<defs>
						<polygon id="SVGID_68_" points="45,95.9 47.9,95.9 47.9,94.8 49.1,94.8 49.1,104 48,104 48,106.9 53,106.9 53,104 52,104 
							52,94.8 53.2,94.8 53.2,95.9 56.1,95.9 56.1,92 45,92 						"/>
					</defs>
					<defs>
						<polygon id="SVGID_69_" points="67.6,94.8 68.5,94.8 67.4,100.1 64.9,95.2 62.5,100.1 61.4,94.8 62.3,94.8 62.3,92 57.3,92 
							57.3,94.8 58.4,94.8 60.3,104 59.3,104 59.3,106.9 64.4,106.9 64.4,104 63.6,104 64.9,101.4 66.3,104 65.5,104 65.5,106.9 
							70.5,106.9 70.5,104 69.6,104 71.5,94.8 72.6,94.8 72.6,92 67.6,92 						"/>
					</defs>
					<defs>
						<path id="SVGID_70_" d="M80.7,92H78L74.9,104h-1.1v2.9h5V104h-0.9l0.3-1.1h2.4l0.3,1.1h-0.9v2.9h5V104h-1.1L80.7,92z
							 M78.9,100l0.5-1.8l0.5,1.8H78.9z"/>
					</defs>
					<defs>
						<path id="SVGID_71_" d="M96.2,99.9l-0.4-0.4l0.4-0.4v-5.2l-1.9-1.9h-8.2v2.9h1v9.2h-1v2.9h5V104h-1v-3.1h3.2v3.1h-1v2.9h5V104
							h-1L96.2,99.9L96.2,99.9z M90.1,98v-3.1h3.2V98H90.1z"/>
					</defs>
					<defs>
						<polygon id="SVGID_72_" points="98.4,94.8 99.4,94.8 99.4,104 98.4,104 98.4,106.9 108.6,106.9 108.6,103 105.6,103 
							105.6,104 102.4,104 102.4,100.9 103.6,100.9 103.6,101.9 106.5,101.9 106.5,97 103.6,97 103.6,98 102.4,98 102.4,94.8 
							105.6,94.8 105.6,95.9 108.6,95.9 108.6,92 98.4,92 						"/>
					</defs>
					<clipPath id="SVGID_73_">
						<use xlink:href="#SVGID_65_"  style="overflow:visible;"/>
					</clipPath>
					<clipPath id="SVGID_74_" class="st22">
						<use xlink:href="#SVGID_66_"  style="overflow:visible;"/>
					</clipPath>
					<clipPath id="SVGID_75_" class="st23">
						<use xlink:href="#SVGID_67_"  style="overflow:visible;"/>
					</clipPath>
					<clipPath id="SVGID_76_" class="st24">
						<use xlink:href="#SVGID_68_"  style="overflow:visible;"/>
					</clipPath>
					<clipPath id="SVGID_77_" class="st25">
						<use xlink:href="#SVGID_69_"  style="overflow:visible;"/>
					</clipPath>
					<clipPath id="SVGID_78_" class="st26">
						<use xlink:href="#SVGID_70_"  style="overflow:visible;"/>
					</clipPath>
					<clipPath id="SVGID_79_" class="st27">
						<use xlink:href="#SVGID_71_"  style="overflow:visible;"/>
					</clipPath>
					<clipPath id="SVGID_80_" class="st28">
						<use xlink:href="#SVGID_72_"  style="overflow:visible;"/>
					</clipPath>
					<g class="st29">
						<path class="st30" d="M120.1,83.2H1.6c1,0.7,2.2,1.1,3.5,1.1h6.2l-1.4,1.4c-1.1,1.1-1.8,2.6-1.8,4.2v5.2c0,0.7,0.1,1.4,0.3,2
							c-0.2,0.6-0.3,1.3-0.3,2v2c0,1.6,0.6,3.1,1.8,4.2l1.9,1.9c1.1,1.1,2.6,1.8,4.2,1.8h5.2c0.8,0,1.7-0.2,2.4-0.5
							c0.8,0.3,1.6,0.5,2.4,0.5h5.2c0.5,0,1-0.1,1.5-0.2c0.5,0.1,1,0.2,1.5,0.2h4.9c1.8,0,3.5-0.8,4.6-2.1c1.1,1.3,2.7,2.1,4.6,2.1
							h4.9c1.1,0,2.2-0.3,3.1-0.9c0.9,0.5,2,0.9,3.1,0.9h4.9c0.2,0,0.4,0,0.6,0c0.2,0,0.4,0,0.6,0h4.9c0.5,0,1.1-0.1,1.6-0.2
							c0.5,0.1,1,0.2,1.6,0.2h4.9c0.2,0,0.4,0,0.6,0c0.2,0,0.4,0,0.6,0h4.9c0.2,0,0.4,0,0.6,0c0.2,0,0.4,0,0.6,0h4.9
							c0.2,0,0.4,0,0.6,0c0.2,0,0.4,0,0.6,0h4.9c0.2,0,0.4,0,0.6,0c0.2,0,0.4,0,0.6,0h9.9c3.3,0,6-2.7,6-6v-3.9
							c0-1.3-0.4-2.6-1.2-3.6c0.7-1,1.2-2.2,1.2-3.6v-3.9c0-1.4-0.5-2.7-1.3-3.8h4.4C117.9,84.3,119.1,83.9,120.1,83.2z"/>
					</g>
				</g>
			</g>
			<g>
				<g>
					<polygon class="st0" points="12.4,86 9.3,86 9.3,87.1 6,87.1 6,83.8 7.2,83.8 7.2,84.8 10.2,84.8 10.2,79.7 7.2,79.7 7.2,80.8 
						6,80.8 6,77.5 9.3,77.5 9.3,78.5 12.4,78.5 12.4,74.5 1.9,74.5 1.9,77.5 2.9,77.5 2.9,87.1 1.9,87.1 1.9,90.1 12.4,90.1 					
						"/>
				</g>
				<g>
					<polygon class="st0" points="18.7,87.1 17.7,87.1 17.7,81.4 22.3,90.1 25.1,90.1 25.1,77.5 26.2,77.5 26.2,74.5 21,74.5 
						21,77.5 22.1,77.5 22.1,83.1 17.5,74.5 13.6,74.5 13.6,77.5 14.6,77.5 14.6,87.1 13.6,87.1 13.6,90.1 18.7,90.1 					"/>
				</g>
				<g>
					<polygon class="st0" points="34.9,90.1 36.8,88.1 36.8,80.8 31.6,80.8 31.6,83.8 33.8,83.8 33.8,87.1 30.4,87.1 30.4,77.5 
						33.8,77.5 33.8,79.6 36.8,79.6 36.8,76.4 34.9,74.5 29.4,74.5 27.4,76.4 27.4,88.1 29.4,90.1 					"/>
				</g>
				<g>
					<polygon class="st0" points="48.5,86 45.5,86 45.5,87.1 42.1,87.1 42.1,83.8 43.3,83.8 43.3,84.8 46.4,84.8 46.4,79.7 
						43.3,79.7 43.3,80.8 42.1,80.8 42.1,77.5 45.5,77.5 45.5,78.5 48.5,78.5 48.5,74.5 38,74.5 38,77.5 39.1,77.5 39.1,87.1 
						38,87.1 38,90.1 48.5,90.1 					"/>
				</g>
				<g>
					<polygon class="st0" points="54.9,87.1 53.8,87.1 53.8,81.4 58.4,90.1 61.3,90.1 61.3,77.5 62.4,77.5 62.4,74.5 57.2,74.5 
						57.2,77.5 58.2,77.5 58.2,83.1 53.7,74.5 49.7,74.5 49.7,77.5 50.8,77.5 50.8,87.1 49.7,87.1 49.7,90.1 54.9,90.1 					"/>
				</g>
				<g>
					<polygon class="st0" points="68.7,87.1 67.7,87.1 67.7,83.8 71,83.8 71,87.1 69.9,87.1 69.9,90.1 75.1,90.1 75.1,87.1 
						74.1,87.1 74.1,77.5 75.1,77.5 75.1,74.5 69.9,74.5 69.9,77.5 71,77.5 71,80.8 67.7,80.8 67.7,77.5 68.7,77.5 68.7,74.5 
						63.6,74.5 63.6,77.5 64.6,77.5 64.6,87.1 63.6,87.1 63.6,90.1 68.7,90.1 					"/>
				</g>
				<g>
					<path class="st0" d="M81.5,87.1h-0.9l0.3-1.2h2.5l0.3,1.2h-0.9v3h5.2v-3h-1.2l-3.2-12.6h-2.9l-3.2,12.6h-1.2v3h5.2L81.5,87.1
						L81.5,87.1z M81.6,82.9l0.5-1.8l0.5,1.8H81.6z"/>
				</g>
				<g>
					<path class="st0" d="M94.3,87.1h-1.1v-3.3h3.3v3.3h-1.1v3h5.2v-3h-1.1v-4.3l-0.4-0.4l0.4-0.4v-5.4l-2-1.9h-8.5v3h1.1v9.6h-1.1
						v3h5.2L94.3,87.1L94.3,87.1z M93.2,80.8v-3.3h3.3v3.3H93.2z"/>
				</g>
				<g>
					<polygon class="st0" points="107,87.1 106,87.1 106,77.5 107,77.5 107,74.5 101.8,74.5 101.8,77.5 102.9,77.5 102.9,87.1 
						101.8,87.1 101.8,90.1 107,90.1 					"/>
				</g>
				<g>
					<path class="st0" d="M113.4,87.1h-0.9l0.3-1.2h2.5l0.3,1.2h-0.9v3h5.2v-3h-1.2l-3.2-12.6h-2.9l-3.2,12.6h-1.2v3h5.2L113.4,87.1
						L113.4,87.1z M113.5,82.9L114,81l0.5,1.8H113.5z"/>
				</g>
			</g>
			<g>
				<path class="st31" d="M58.3,93.9c-0.8,0-1.4-0.6-1.4-1.4v-3.3c0-0.8,0.6-1.4,1.4-1.4h1.1c0.8,0,1.4,0.6,1.4,1.4v3.3
					c0,0.8-0.6,1.4-1.4,1.4H58.3z"/>
			</g>
			<g>
				<rect x="58.3" y="89.2" class="st31" width="1.1" height="3.3"/>
			</g>
		</g>
	</g>
	<path class="st0" d="M75.5,40.7c-0.2,0.8,1.2,0.3,1,1.1c0,0.2-0.3,0.3-0.5,0.4c-0.5,0.2-0.9,0.3-1.4,0.5c0,0.2,0,0.3,0,0.5
		c0.4,1,0,1.7-0.6,2.6c-0.8,1.1-1.8,1.8-3.2,2.1c-0.3,0-0.6-0.1-0.8-0.1c-0.1,0-0.1-0.1-0.2-0.1c-1.2-0.7-2.6-1.1-2.6-2.8
		c-0.4,0.1-0.7,0.1-1,0.1c0,0-0.1-0.1-0.1-0.1c0.2-0.2,0.4-0.5,0.7-0.7c0.4-0.2,0.9-0.4,1.4-0.6c1.5-0.5,2.7-1.3,4-2.1 M68.2,44.7
		c0.2,0.5,0.3,0.9,0.6,1.1c0.9,0.6,1.8,1.1,2.8,0.3c0.5-0.4,0.9-1,1.1-1.6c0.2-0.7-0.5-1-1.4-0.6c0.2,0.9,0,1.3-0.7,1.6
		c-0.6,0.2-1,0-1.6-1C68.8,44.6,68.6,44.6,68.2,44.7z"/>
	<path class="st0" d="M50.5,40c0,0.8-1.4,0.1-1.4,1c0,0.2,0.2,0.4,0.4,0.5c0.5,0.2,1,0.4,1.5,0.7c-0.1,0.2-0.1,0.3-0.2,0.5
		c-0.7,1-0.4,1.8,0.1,2.7c0.7,1.2,1.6,2.1,3.1,2.4c0.3,0.1,0.6,0,0.9,0c0.1,0,0.1-0.1,0.2-0.1c1.4-0.6,3.1-0.8,3.6-2.5
		c0,0,0.5,0,0.5,0c0,0,0.3-0.1,0.3-0.2c0,0,0.2-0.3-0.1-0.5C59,44.2,58.5,44,58,43.8c-1.5-0.7-2.7-1.7-3.9-2.6 M57.6,44.9
		c-0.4,0.4-0.6,0.9-1,1.1c-1.1,0.5-2.3,0.9-3.2,0c-0.4-0.4-0.8-1.1-0.8-1.7c-0.1-0.7,0.8-0.9,1.7-0.5c-0.4,0.9-0.3,1.3,0.4,1.6
		c0.7,0.3,1.1,0.1,2-0.9C56.9,44.6,57.2,44.7,57.6,44.9z M59.2,45.1c0.2,0,0.1,0,0.3-0.2"/>
	<path class="st0" d="M57.4,54.2c0,0-0.1-0.1-0.2-0.2c0-0.1,0-0.1,0.1-0.1c2.4-1.9,5.1-2.7,8.1-2.2c0.7,0.1,1.4,0.7,2.2,1
		c-0.3,0.6-0.6,1.1-1,1.7c-1.1-0.5-2.2-1-3.2-1.5c-0.8-0.4-1.6-0.5-2.5-0.2C59.8,53.1,58.7,53.6,57.4,54.2z M66.7,53.4
		c0-0.1,0-0.1-0.1-0.2c-0.6-0.2-1.3-0.9-2-0.4c0.7,0.3,1.2,0.7,1.8,0.9C66.4,53.7,66.5,53.5,66.7,53.4z"/>
	<ellipse class="st0" cx="97.2" cy="58.1" rx="4.1" ry="5"/>
</g>
</svg>
