<?xml version="1.0" encoding="utf-8"?>
<!-- Generator: Adobe Illustrator 23.0.2, SVG Export Plug-In . SVG Version: 6.00 Build 0)  -->
<svg version="1.1" id="Camada_1" xmlns="http://www.w3.org/2000/svg" xmlns:xlink="http://www.w3.org/1999/xlink" x="0px" y="0px"
	 viewBox="0 0 119.8 121.9" style="enable-background:new 0 0 119.8 121.9;" xml:space="preserve">
<style type="text/css">
	.st0{fill:#FFFFFF;}
</style>
<g id="OBJECTS">
	<g>
		<path class="st0" d="M52.9,19.1c-0.4,0-0.6,0.1-0.8,0.1c-2.2,0.4-4.1,1-6.1,1.9c-0.5,0.2-1,0.3-1.4,0.5c-0.1,0-0.3,0.1-0.4,0.1
			c-0.4,0-0.8,0-1.1-0.4c-0.2-0.4,0.1-0.8,0.3-1.1c0.6-0.5,1.3-1,1.9-1.4c1.8-0.9,3.7-1.4,5.5-1.9c0.9-0.2,1.8-0.3,2.8-0.5
			c0.5-0.1,0.7-0.2,0.9-0.7c0.7-1.5,1.4-3,2.1-4.4c0.8-1.7,1.7-3.3,2.8-4.7c0.3-0.4,0.6-0.8,1-1.1C61,4.8,61.8,4.8,62.6,5
			c0.5,0.2,0.7,0.4,0.6,0.9C63.1,6.3,63,6.7,63,7c-0.8,2.6-1.7,5.2-2.6,7.8c-0.1,0.3-0.2,0.7-0.4,1.1c0.2,0,0.3,0.1,0.5,0.1
			c4.1,0.1,8.3,0.1,12.4,0.2c3.7,0,7.2-0.2,10.8-1c1.9-0.4,3.8-1,5.5-1.9c1.4-0.8,2.6-1.8,3.3-3.3c0.3-0.6,0.5-1.3,0.4-2
			c0-1.6-1.2-2.8-2.8-2.7c-0.8,0-1.6,0.2-2.3,0.4C86.4,6.4,85,7,83.6,7.6c-1,0.5-2,1-3,1.6c0.2,0.2,0.3,0.3,0.4,0.3
			c0.7,0.4,1.4,0.8,2.2,1.2c0.8,0.4,1.5,0.5,2.3,0.3c0.4-0.1,0.8-0.1,1.2-0.1c0.3,0,0.6,0.1,0.8,0.2c0.6,0.3,0.7,0.7,0.1,1.1
			c-0.7,0.6-1.6,0.9-2.5,1.1c-2,0.4-4,0-5.8-0.7c-0.8-0.3-1.6-0.7-2.3-1.2c-0.4-0.1-0.8-0.1-1.4,0c-1.9,0.7-3.8,1.2-5.7,1.4
			c-1.1,0.1-2.2,0.1-3.3-0.2c-2.8-0.6-3-2.8-2.4-4.5c0.5-1.3,1.5-2.2,2.9-2.7c3-1.2,5.8-1,8.7,0.6c0.7,0.4,1.3,0.8,1.9,1.3
			c0.3-0.1,0.6-0.3,0.9-0.4c2.4-1.3,4.8-2.4,7.4-3.1c2.5-0.6,4.9-0.8,7.4-0.3c1.4,0.3,2.7,0.8,3.8,1.8c1.7,1.4,2.3,3.2,1.5,5.2
			C98.1,11.9,97.2,13,96,14c-1.5,1.2-3.2,2-4.9,2.7c-2.7,1-5.4,1.6-8.3,1.9C77.6,19.3,72.2,19.2,67,19c-2.4-0.1-4.7-0.2-7.1-0.2
			c-0.3,0-0.6,0-0.8,0c-0.1,0.1-0.2,0.1-0.2,0.2c-1.8,4.2-3.7,8.4-5.3,12.6c-1.5,3.7-2.3,7.5-2.6,11.5c-0.1,1.6,0,3.3,0.4,4.7
			c0.1,0.3,0.2,0.6,0.3,1c0.3-0.3,0.5-0.4,0.6-0.6c1.5-1.6,2.7-3.3,3.7-5.1c0.7-1.3,1.3-2.7,2-3.9c0.8-1.4,1.8-2.8,2.7-4.1
			c0.3-0.5,0.5-0.9,0.6-1.5c0.3-1.8,0.9-3.6,1.8-5.2c1.5-2.6,3.6-4.4,6.5-5.1c1.9-0.4,3.8-0.4,5.6,0.2c0.8,0.3,1.4,0.7,2.2,1.1
			c0.2-0.3,0.4-0.8,0.7-1.1c0.6-0.7,1.1-1.5,1.8-2.1c0.7-0.7,1.6-1,2.5-1c1.1,0.1,1.6,0.6,1.5,1.7c-0.1,0.7-0.2,1.3-0.4,2
			c-0.6,1.8-1.2,3.5-1.7,5.2c-0.5,1.6-1,3.2-1.2,4.7c-0.1,0.8-0.2,1.6,0.1,2.5c0.3-0.3,0.5-0.6,0.7-0.8c1.5-2,2.6-4.2,3.7-6.5
			c0.3-0.5,0.3-1.1,0.5-1.7c0.3-0.8,0.5-1.5,0.8-2.3c0.5-1.2,1.4-2,2.5-2.6c0.8-0.4,1.7-0.3,2.5,0c0.6,0.3,0.7,0.8,0.7,1.4
			c-0.1,0.8-0.2,1.6-0.3,2.4c-0.2,1.4-0.4,2.9-0.6,4.2c0,0.2,0,0.4,0,0.8c0.3-0.3,0.5-0.5,0.6-0.8c2.2-2.9,4.1-5.9,5.7-9.1
			c0.3-0.7,0.8-1.3,1.2-1.9c0.3-0.4,0.7-0.7,1.2-0.8c0.8-0.2,1.7-0.2,2.5,0.1s1.1,0.6,0.9,1.5c-0.4,2.3-0.9,4.6-1.4,7
			c-1,4.2-2,8.6-3,12.8c0,0.2-0.1,0.3-0.1,0.6c0.1,0,0.2,0.1,0.3,0c2.5-0.8,4.8-2,6.8-3.8c1.5-1.3,2.7-3,3.3-4.8
			c0.5-1.5,0.4-3.1-0.3-4.4c-0.3-0.6-0.6-1.2-1-1.8c-0.1-0.2-0.3-0.4-0.4-0.7c-0.3-0.7-0.2-1.2,0.4-1.6c0.4-0.3,0.9-0.4,1.3-0.5
			c3.2-0.6,5.7,0.9,7.2,3.8c1,2,1.1,4,0.2,6s-2.3,3.8-4.1,5.1c-3,2.4-6.2,3.9-9.8,4.9c-1.3,0.4-2.8,0.7-4.1,1
			c-0.3,0.1-0.5,0.1-0.8,0.2c-0.5,1.2-0.9,2.4-1.4,3.6c-0.9,2-1.9,3.9-3.3,5.5c-3,3.8-6.7,6.1-11.5,6.8c-2.2,0.3-4.2,0.3-6.3-0.4
			c-0.9-0.3-1.7-0.7-2.4-1.2c-1.7-1.3-2.3-3-1.9-4.9c0.4-2.1,1.4-3.9,2.9-5.4c1.9-2,4.2-3.2,6.8-4c2.6-0.8,5.2-1.2,7.9-1.6
			c1.3-0.2,2.5-0.3,3.7-0.5c0.4-0.1,0.7-0.2,0.8-0.6c0.6-2.3,1.3-4.4,1.9-6.8c-3,2.4-5.8,2.4-8.9,0.6c-0.4,0.5-0.8,1.1-1.3,1.6
			c-1.6,1.9-3.6,2.6-6,2.3c-1.3-0.2-2.3-0.8-3-2c-0.1-0.1-0.1-0.2-0.2-0.3c0,0,0,0-0.1-0.1c-0.4,0.6-0.8,1.1-1.3,1.7
			c-1,1.3-2.2,2.4-3.6,3.3c-1.7,1.1-3.5,1.4-5.4,1.1c-1.1-0.2-2-0.8-2.9-1.6c-0.2,0.3-0.3,0.5-0.4,0.8c-0.9,1.5-1.7,3-2.7,4.3
			c-0.8,1.3-1.9,2.3-3,3.3c-2,1.7-4.2,2.1-6.7,1.5c-1.7-0.4-2.8-1.5-3.7-3c-0.7-1.3-1-2.8-1.1-4.2c-0.1-3.6,0.5-7,1.5-10.4
			c1.1-3.7,2.7-7.2,4.2-10.6C51.5,21.9,52.2,20.6,52.9,19.1z M91.7,45.5c-0.3,0-0.6,0-0.8,0c-1.8,0.3-3.5,0.5-5.1,0.8
			c-1.8,0.3-3.5,0.8-4.9,1.7c-1.6,0.9-2.9,2.1-3.8,3.7c-0.6,1-0.9,2.1-0.9,3.3c-0.1,1.8,1.7,3.8,4.1,3.2c1.8-0.5,3.4-1.3,4.7-2.4
			c2.1-1.7,3.7-3.8,4.9-6C90.5,48.3,91.1,46.9,91.7,45.5z M66.9,41.2c1.1-0.5,2-1.4,3-2.7c1.8-2.2,3.2-4.5,4.4-7
			c0.3-0.7,0.5-1.3,0.4-2.1c-0.2-1.6-0.7-3.1-2.1-4.1c-0.5-0.4-0.9-0.5-1.5-0.2c-0.5,0.3-0.9,0.6-1.4,1c-0.8,0.8-1.5,1.7-2,2.7
			c-1.1,2.1-1.8,4.2-2.1,6.6c-0.2,1.3-0.3,2.6,0,3.9C66.1,40,66.3,40.7,66.9,41.2z M73.9,9.1c-0.8-0.8-1.4-1.5-2.1-2.2
			c-0.5-0.5-1.2-0.8-2-0.7c-1.1,0.2-2,0.8-2.6,1.8c-0.4,0.7-0.5,1.5-0.2,2.3c0.2,0.5,0.7,1,1.5,0.8c0.3-0.1,0.6-0.1,0.9-0.2
			C71.1,10.4,72.4,9.9,73.9,9.1z"/>
		<path class="st0" d="M37.4,34.7c0-3.5-0.5-6.8-1.1-10.2c-0.6-3.8-1.2-7.6-1.8-11.4c-0.3-2.2-0.3-4.4,0.4-6.6c1-3.6,4-5.9,7.7-6.1
			c1.1,0,2.3,0,3.3,0.3c2.7,0.8,4.2,2.7,4.6,5.3c0.3,1.6,0,3.2-0.9,4.5c-0.3,0.4-0.6,0.9-1,1.2c-0.5,0.5-1.2,0.7-1.8,0.5
			c-0.6-0.1-0.8-0.4-0.8-1c0-0.5,0-1.1,0.1-1.6c0-1.4-0.1-2.8-0.6-4.1c-0.3-1-0.9-1.9-1.7-2.6c-0.5-0.4-0.6-0.4-1.2-0.1
			c-1,0.7-1.7,1.6-2.2,2.7c-0.5,1.3-0.8,2.6-0.8,4c-0.1,2.3,0.2,4.6,0.6,6.9c0.7,4.1,1.4,8,2.1,12.1c0.7,4.5,0.7,9-0.1,13.5
			c-0.5,2.9-1.5,5.6-3.1,8.2c-2.6,4.2-6.4,6.7-11.1,8c-3.2,0.9-6.3,1-9.5,0.2c-2.3-0.6-4.3-1.7-5.7-3.5c-4.5-5.5-6.1-12-3.9-19
			c1.2-3.7,3.5-6.4,7-8c2.3-1.1,4.7-1.3,7.2-0.8c3,0.6,4.9,2.3,6,5.1c0.9,2.3,1.3,4.7,1,7.2c-0.3,2.6-2.5,4.3-5.4,3.4
			c-0.6-0.2-0.9-0.6-1.2-1.2c-0.4-1.1-0.4-2.1-0.3-3.2c0.2-1.6,0.1-3.1-0.3-4.5c-0.2-0.8-0.5-1.6-0.8-2.4C22,31,21.7,30.5,21.3,30
			c-0.3-0.4-0.8-0.5-1.2-0.2c-0.7,0.5-1.5,0.9-2.1,1.5c-1.6,1.5-2.6,3.3-3.2,5.3c-1.7,5.9-0.6,11.4,2.9,16.5
			c0.6,0.9,1.3,1.7,2.2,2.3c1.3,1,2.8,1.3,4.4,0.9c4.3-1.1,7.6-3.7,9.8-7.5c1.4-2.5,2.2-5.2,2.7-8C37.2,38.6,37.4,36.7,37.4,34.7z"
			/>
	</g>
	<g>
		<path class="st0" d="M63.4,87.2c0.2-0.3,0.3-0.6,0.5-0.8c1.6-2.9,3.4-5.5,5.5-8.1c1.2-1.4,2.5-2.5,4.1-3.4c1-0.5,2-0.8,3.1-0.8
			c2.2,0,3.5,1.2,3.8,3.4c0.1,1.1,0,2.2-0.1,3.3c-0.2,2.4-0.9,4.7-1.7,7c-0.1,0.2-0.2,0.4-0.1,0.8c0.2-0.2,0.3-0.4,0.5-0.6
			c2.3-2.8,4.4-5.4,6.7-8.1c1.2-1.4,2.5-2.6,3.9-3.7c1.1-0.8,2.3-1.5,3.6-1.9c1.2-0.4,2.4-0.4,3.5,0c1.1,0.3,1.8,1,2,2.2
			c0.3,1.3,0.2,2.7-0.1,4c-0.6,2.2-1.4,4.3-2.4,6.3c-1.4,3-3,5.9-4.3,9c-1.1,2.4-2.2,4.8-3.1,7.2c-0.4,1-0.5,2.1-0.7,3.1
			c-0.1,0.8,0,1.3,0.4,1.9c0.4-0.3,0.8-0.4,1.1-0.8c0.9-0.9,1.9-1.8,2.7-2.8c2.5-3,4.4-6.2,6.4-9.5c0.9-1.6,1.8-3.3,3.1-4.6
			c0.2-0.2,0.3-0.5,0.4-0.8c1.1-2.3,2.4-4.3,4-6.2c0.6-0.8,1.3-1.5,2.1-2.2c2.1-1.7,4.3-1.7,6.6-0.6c1.7,0.8,2.4,2.9,1.6,4.5
			c-0.3,0.7-0.8,1.4-1.4,2c-1.9,2-4.2,3-7.1,3c-0.3,0-0.5,0-0.8,0c-0.1,0.1-0.2,0.2-0.2,0.3c-1.2,2.9-2.1,5.8-2.4,9
			c-0.1,0.8,0,1,0.4,1.6c0.6-0.1,1.1-0.4,1.6-0.8c1.1-0.9,1.9-2,2.8-3.2c0.9-1.3,1.9-2.6,2.8-3.9c0.7-0.9,1.5-1.2,2.6-1
			c1,0.2,2.1,0.6,3.1,0.9c0.2,0.1,0.4,0.2,0.6,0.3c0.5,0.4,0.6,0.8,0.3,1.3c-0.3,0.5-0.6,1-1,1.4c-2.1,2.4-4.4,4.4-7,6.2
			c-1.9,1.3-4.1,1.8-6.2,1.5c-1.8-0.2-3.3-0.9-4.3-2.4c-0.2,0.3-0.3,0.5-0.5,0.7c-1.3,1.9-2.7,3.8-4.3,5.3c-1,0.9-2,1.8-3.2,2.3
			c-1.4,0.7-2.9,0.9-4.3,0.6c-0.9-0.2-1.7-0.6-2.4-1.2c-0.9-0.8-1.3-1.8-1.3-3c0-1.3,0.2-2.7,0.7-3.9c1-2.5,2.1-4.9,3.3-7.4
			c1.8-4,3.8-7.8,5.5-11.7c0.8-1.7,1.4-3.5,1.8-5.3c0.1-0.5,0.1-1-0.1-1.7c-0.3,0.2-0.5,0.3-0.6,0.4c-0.9,0.7-1.7,1.4-2.6,2.2
			c-3.6,3-6.7,6.4-9.2,10.4c-1.8,2.7-3.4,5.4-5,8.1c-1.4,2.3-2.9,4.4-4.2,6.6c-0.3,0.5-0.7,1.1-1,1.6c-0.3,0.5-0.6,0.7-1.2,0.8
			c-1.2,0.2-2.4,0.1-3.6-0.1c-1.2-0.3-1.6-0.9-1.2-2.1c0.5-1.5,1.1-3,1.8-4.3c1.7-3.8,3.3-7.4,4.5-11.3c0.8-2.6,1.7-5,2.4-7.6
			c0.2-0.8,0.3-1.6,0.4-2.4c0.1-0.4,0-0.8-0.4-1.3c-0.2,0.2-0.5,0.3-0.7,0.5c-1.4,1.3-2.6,2.6-3.6,4.1c-1.5,2.3-3,4.6-4.1,7.2
			c-0.9,2.3-1.7,4.5-2.5,6.7c-1.1,3.1-2.2,6-3.2,9.1c-0.3,0.8-0.8,1.2-1.6,1.3c-1.3,0-2.7,0-4.1-0.1c-0.3,0-0.5-0.1-0.8-0.2
			c-0.6-0.3-0.8-0.6-0.7-1.3c0.2-0.8,0.5-1.7,0.8-2.5c1-3.1,2.1-6.1,3.1-9.2c0.3-1,0.5-2,0.7-3c0.2-0.8,0.1-1.6-0.3-2.3
			C58,87,57.9,87,57.3,87c-0.1,0-0.1,0-0.2,0c-0.8,0.3-0.9,0.3-0.9,1.1c0,2.2-0.5,4.2-1,6.2c-0.8,3-1.8,5.9-3.5,8.5
			c-1.4,2.3-3.1,4.2-5.3,5.7c-2.2,1.4-4.5,1.8-7.1,1.2c-0.2,0-0.4-0.1-0.6-0.1c-2.9-0.4-4.4-2.1-4.8-4.9c-0.3-2.8,0-5.5,0.8-8.3
			c0.8-2.5,1.8-4.7,3.2-6.9c0.6-0.9,1.2-1.7,1.9-2.5c0.2-0.3,0.3-0.5,0.3-0.8c-0.7-4.6,2.5-8.4,7.2-8.5c1.5,0,2.9,0.3,4.1,1
			c0.2,0.1,0.3,0.2,0.5,0.3c2.3,1.1,3.6,2.9,4.1,5.2c0.1,0.2,0.1,0.5,0.2,0.7c0,0.1,0.1,0.1,0.1,0.1c0.8,0,1.7-0.1,2.5-0.1
			c0.8,0.1,1.5,0.2,2.3,0.5c0.9,0.3,1.7,0.9,2.2,1.8C63.2,86.9,63.3,87,63.4,87.2z M43.1,89.7c-0.1,0.1-0.2,0.2-0.2,0.3
			c-1.9,4.1-2.8,8.3-2.7,12.7c0,1.2,0.2,2.3,0.7,3.3c0.1,0.2,0.3,0.5,0.4,0.5c1,0.3,2,0.3,2.6-0.8c0.7-1,1.3-1.9,1.9-2.9
			c2-3.7,3.5-7.6,4.2-11.7c0-0.2,0.1-0.5,0.1-0.8C47.6,91.2,45.4,90.9,43.1,89.7z M50.7,85.4c0.1-1.5-0.1-3-0.7-4.3
			c-0.4-0.8-0.9-1.4-1.7-1.9c-0.5-0.3-1.1-0.3-1.6-0.1c-1.5,0.8-3.1,2.5-2.6,4.7c0.1,0.3,0.1,0.5,0.4,0.6c0.4,0.2,0.4,0.4,0.3,0.8
			c-0.1,0.3-0.2,0.5-0.1,0.8c0.3,0.8,0.7,1.4,1.3,2c0.6,0.5,1.3,0.8,2.1,0.5c0.7-0.2,1.3-0.5,2-0.7c0.4-0.1,0.5-0.3,0.5-0.7
			C50.7,86.5,50.7,85.9,50.7,85.4z M112.3,81.5c-0.9,0.5-1.5,1.1-1.9,1.9c-0.8,1.4-1.6,2.8-2.4,4.1c-0.1,0.2-0.1,0.3-0.2,0.6
			c0.2-0.1,0.3-0.1,0.5-0.2c1.4-0.8,2.7-1.7,3.6-3c0.3-0.4,0.5-0.9,0.7-1.4C112.6,82.9,112.6,82.2,112.3,81.5z"/>
		<path class="st0" d="M6.3,92.7c0.2-1.4,0.4-2.8,0.6-4.1c0.5-3.3,1-6.4,1.5-9.6c0.2-1.3,0.5-2.7,0.7-4c0.1-0.5,0.3-0.8,0.8-0.9
			c0.1,0,0.3-0.1,0.4-0.1c1.4,0,2.8-0.1,4.1,0c0.7,0,0.9,0.3,0.9,1.1c0,0.6-0.1,1.3-0.3,1.9c-1,4.4-2,8.8-2.6,13.3
			c-0.1,0.8-0.2,1.7-0.3,2.6c2.7,0.4,5.3,0.9,8.1,0.8c0.1-1,0.3-1.9,0.4-2.9c0.7-5.2,1.7-10.4,2.8-15.5c0.3-1.3,0.6-2.7,0.9-4
			c0.2-1,0.6-1.4,1.6-1.5c0.4-0.1,0.8-0.1,1.3,0c0.8,0.1,1.5,0.2,2.3,0.2c1.2,0.1,1.6,0.5,1.6,1.7c-0.1,1.8-0.2,3.5-0.4,5.2
			c-0.6,4.1-1.3,8.3-2,12.3c0,0.2-0.1,0.5-0.1,0.8c0.3-0.2,0.4-0.3,0.6-0.4c0.6-0.6,1.1-1.2,1.7-1.7c0.9-0.8,2-1.4,3.3-1.3
			c0.2,0,0.4,0,0.6,0.1c0.9,0.3,1.3,1.1,0.8,1.9c-0.6,1.1-1.3,2-2.2,2.8c-1.4,1.3-3,2.3-4.6,2.9c-0.5,0.2-0.8,0.5-0.9,1.1
			c-0.8,4.2-1.8,8.5-2.7,12.6c-0.2,0.8-0.3,1.6-0.4,2.4c0,0.5-0.3,0.8-0.8,1c-1.5,0.3-3,0.4-4.4,0.3c-1-0.1-1.2-0.6-1.2-1.5
			c0.2-3.8,1-7.3,1.4-11c0.1-1,0.3-2.1,0.4-3.2c-2.8,0-5.3-0.4-8-1c-0.1,0.8-0.2,1.5-0.3,2.2c-0.7,4.1-1.4,8.3-2.1,12.5
			c-0.2,0.9-0.2,1.8-0.2,2.7c-0.1,0.8-0.3,1.1-1.1,1.3c-1.2,0.2-2.4,0.3-3.7,0c-1-0.3-1.3-0.5-1.1-1.5c0.2-2.2,0.5-4.2,0.8-6.4
			c0.6-3.6,1.2-7.1,1.8-10.7c0-0.2,0-0.3,0-0.6c-0.8-0.1-1.5,0.1-2.2,0.3c-0.5,0.2-1.1,0.3-1.6,0.2c-0.3-0.1-0.6-0.2-0.6-0.5
			c0-0.2,0.2-0.5,0.3-0.7c0.5-0.3,1.1-0.6,1.6-0.8C4.5,93,5.4,92.8,6.3,92.7z"/>
		<path class="st0" d="M94.4,117.6c-4.1-0.3-8.1-0.5-12.1-0.8c-4.6-0.3-9.2-0.2-13.7,0.1c-4.1,0.2-8.1,0.3-12.2,0.5
			c-5.1,0.3-10.2,0.5-15.3,0.8c-5.4,0.3-10.8,0.6-16.2,0.9c-4.3,0.3-8.7,0.6-13.1,0.9c-1.8,0.1-3.6,0.2-5.2,0.4
			c-0.9,0.1-1.6-0.2-2.1-0.6c-1.8-1.5-1.6-2.6,1-3.1c1.7-0.4,3.5-0.6,5.1-0.8c6.2-0.6,12.5-1.1,18.9-1.7c6.5-0.6,13-1.1,19.7-1.4
			c4.6-0.3,9.2-0.4,13.8-0.7c3.8-0.2,7.4-0.5,11.2-0.7c3.4-0.2,6.7-0.2,10.2-0.3c2.5,0,4.9,0.1,7.3,0.1c5,0.1,10.1,0.4,15.1,0.9
			c2.1,0.2,4.1,0.5,6.2,1c0.8,0.2,1.3,0.5,1.6,1c0.8,1.2,0.9,2.4,0.6,3.7c-0.2,0.6-0.7,0.9-1.5,0.9c-1.4,0-2.8,0-4.1-0.1
			C104.3,118.4,99.4,118,94.4,117.6L94.4,117.6z"/>
	</g>
	<path class="st0" d="M45.9,63.3c0.4-0.7,0.8-1.3,1.2-1.9c0.7-0.9,1.6-1.2,2.7-0.9c0.6,0.1,0.9,0.4,0.8,1.1c0,0.3-0.1,0.6-0.2,0.9
		c-0.5,1.9-1,3.9-1.4,5.7c-0.2,0.7-0.1,1.4-0.1,2.2c0,0.3,0.1,0.5,0.2,0.8c1.5-1,5.4-7.1,6.2-9.7c-0.2,0-0.4-0.1-0.6-0.1
		c-0.7,0-1.4,0-2.2,0c-0.4,0-0.9-0.2-1.3-0.4c-0.3-0.2-0.3-0.4,0-0.7c0.3-0.2,0.6-0.4,0.9-0.4c1.1-0.2,2.3-0.3,3.4-0.4
		c0.5,0,0.7-0.2,0.9-0.6c0.6-1.1,1.3-2.3,2-3.3c0.7-1,1.9-1.1,2.9-0.4c0.3,0.3,0.4,0.6,0.3,0.9c-0.1,0.7-0.3,1.4-0.4,2.1
		c-0.1,0.3-0.2,0.7-0.3,1.1c0.8,0,1.4-0.3,2.1-0.5s1.4-0.5,2.2-0.6c0.7-0.1,1.4,0,2.1,0.1c0.2,0,0.5,0.1,0.7,0.3
		c0.6,0.3,0.6,0.8,0.1,1.2c-0.3,0.2-0.6,0.4-1,0.6c-1.8,0.8-3.7,1.2-5.5,1.3c-0.4,0-0.9,0.1-1.4,0.1c-0.3,0.8-0.5,1.6-0.7,2.4
		c-0.3,1.2-0.5,2.3-0.6,3.4c-0.1,0.7,0,1.3,0.1,2c0,0.5,0.3,0.9,0.7,1.1c0.6-0.2,1.1-0.7,1.5-1.1c0.4-0.6,0.8-1.2,1.2-1.8
		c0.7-1,1.3-2,2-3c0.3-0.5,0.8-0.8,1.4-0.8c0.7-0.1,1,0.3,1.1,0.9c0.4,4.2-4.1,8.1-8.3,7.1c-1.3-0.3-2.3-0.9-2.9-2
		c-0.2-0.3-0.4-0.6-0.6-0.9c-0.2,0.3-0.3,0.6-0.5,0.8c-0.6,0.8-1.2,1.5-1.9,2.2c-1.5,1.4-3.2,1.7-5,1.3c-0.8-0.2-1.5-0.6-2-1.3
		c-0.2,0.1-0.3,0.3-0.4,0.4c-1.6,1.3-3.3,1.8-5.2,1.2c-1.4-0.4-2.1-1.3-2.4-2.7c-0.4-2.5,1.1-6.4,5-7.3
		C43.6,62.9,44.8,62.9,45.9,63.3z M41.6,71.6c0.2-0.1,0.3-0.1,0.3-0.2c0.2-0.2,0.3-0.3,0.5-0.4c1.1-1.1,1.8-2.4,2.4-3.8
		c0.4-0.9,0.3-1.6-0.4-2.3c-0.3-0.3-0.6-0.4-0.9-0.2c-0.3,0.3-0.8,0.5-1,0.9c-1.1,1.3-1.6,2.7-1.4,4.3
		C41.1,70.5,41.2,71.1,41.6,71.6z"/>
	<g>
		<path class="st0" d="M8.8,53.7C8.9,53.9,9,54,9.1,54.1c0.9,2.5,2.8,4.2,4.7,5.8c0.3,0.2,0.5,0.3,0.8,0.5c1.5,1.1,3.2,1.7,4.9,1.9
			c0.4,0.1,0.8,0.2,1.2,0.4c0.4,0.2,0.5,0.5,0.5,0.9c0,0.4-0.2,0.5-0.6,0.7c-0.4,0.1-0.9,0.2-1.3,0.1c-1.5-0.2-2.9-0.6-4.1-1.4
			c-2.5-1.5-4.4-3.5-5.8-6c-0.4-0.7-0.6-1.5-0.7-2.3C8.5,54.3,8.5,54.1,8.8,53.7z"/>
		<path class="st0" d="M6.6,58c0.2,0.2,0.4,0.3,0.5,0.5c0.3,0.3,0.5,0.6,0.8,0.9c1.9,2.2,4.1,3.9,6.8,4.8c0.4,0.2,0.8,0.3,1.3,0.4
			c1,0.4,2.1,0.5,3.1,0.6c0.4,0,0.9,0.1,1.3,0.1c0.2,0,0.3,0.2,0.4,0.3c0,0.2,0,0.4-0.2,0.5c-0.3,0.1-0.7,0.3-1,0.3
			c-1.4,0.2-2.7,0-4-0.4c-2.8-0.8-5.1-2.2-7-4.1c-0.7-0.8-1.3-1.6-1.8-2.5c-0.1-0.3-0.3-0.6-0.3-0.9C6.5,58.3,6.5,58.1,6.6,58
			C6.5,58,6.5,58,6.6,58z"/>
		<path class="st0" d="M8,64.8c0.2,0.1,0.4,0.1,0.5,0.2c0.7,0.3,1.3,0.7,2,0.9c1.9,0.8,3.9,1.1,5.8,1.2c1.1,0,2.3,0.1,3.4,0.2
			c0.1,0,0.2,0,0.3,0c0.3,0.1,0.4,0.2,0.5,0.4c0,0.3-0.2,0.3-0.4,0.4c-1,0.3-2.1,0.6-3.2,0.4c-1.3-0.2-2.6-0.3-3.9-0.5
			c-1.4-0.3-2.8-0.8-4-1.7c-0.4,0-0.7-0.4-1-0.7C7.9,65.3,7.9,65.2,8,64.8z"/>
		<path class="st0" d="M10,68.8c0.2,0,0.3,0,0.4,0c1.7,0.2,3.3,0.3,4.8,0.5c0.2,0,0.4,0.1,0.5,0.1c0.2,0.1,0.3,0.2,0.3,0.4
			c0,0.2-0.1,0.3-0.3,0.4c-0.7,0.2-1.4,0.4-2.2,0.3c-1.1-0.1-2.1-0.4-3.1-0.8c-0.3-0.1-0.5-0.3-0.6-0.6C10,69,10,69,10,68.8z"/>
	</g>
	<g>
		<path class="st0" d="M89.5,64.8c0.2-0.2,0.3-0.3,0.4-0.4c0.4-0.3,0.8-0.6,1.1-0.8c0.9-0.7,1.8-1.3,2.7-2c2.2-1.9,4.2-3.9,6-6.1
			c0.5-0.6,1.1-1.2,1.7-1.8c0.1-0.1,0.3-0.3,0.5-0.3c0.4-0.2,0.8,0.1,0.7,0.6c-0.1,0.3-0.2,0.5-0.3,0.8c-0.6,1.4-1.4,2.6-2.4,3.8
			c-1.7,2-3.6,3.7-5.6,5.2c-1,0.7-2,1.2-3.2,1.5c-0.3,0.1-0.5,0.1-0.8,0.1C90,65.2,89.7,65.1,89.5,64.8z"/>
		<path class="st0" d="M91.7,66.9c0.2-0.2,0.3-0.3,0.5-0.3c0.5-0.3,0.9-0.6,1.4-0.8c2.5-1.3,4.5-3,6.5-4.8c1.3-1.2,2.5-2.5,3.8-3.7
			c0.3-0.3,0.5-0.5,0.8-0.7c0.3-0.2,0.6-0.3,1-0.2s0.6,0.4,0.4,0.8c-0.1,0.2-0.2,0.4-0.3,0.6c-0.5,0.6-0.9,1.2-1.4,1.8
			c-2.1,2.2-4.3,4.1-6.8,5.7c-1.4,0.9-2.8,1.6-4.4,1.9C92.5,67.2,92.1,67.3,91.7,66.9z"/>
		<path class="st0" d="M87.5,62.6c0.5-0.4,0.9-0.8,1.3-1.2c0.4-0.3,0.8-0.7,1.2-1c1.5-1.3,2.8-2.8,3.8-4.3c0.7-1,1.3-2.1,2-3.1
			c0.1-0.1,0.1-0.2,0.2-0.3c0.2-0.2,0.4-0.2,0.6-0.2c0.2,0.1,0.3,0.2,0.3,0.5c0,0.3,0,0.6-0.1,0.9c-0.4,1.8-1.3,3.5-2.4,4.8
			c-0.5,0.7-1.1,1.3-1.7,2C91.5,62,90,62.6,88.5,63C88.2,63.1,87.8,63,87.5,62.6z"/>
		<path class="st0" d="M94.2,68.5c0.2-0.1,0.4-0.3,0.6-0.3c0.7-0.3,1.4-0.5,2.1-0.8c0.9-0.3,1.9-0.6,2.8-1.1
			c1.6-0.8,3.1-1.7,4.6-2.6c0.9-0.5,1.7-1,2.6-1.5c0.3-0.2,0.6-0.3,1-0.4c0.2-0.1,0.5-0.1,0.7,0c0.3,0.1,0.3,0.3,0.2,0.5
			c-0.1,0.1-0.1,0.3-0.2,0.4c-0.4,0.4-0.7,0.8-1.1,1.2c-2.7,2.1-5.5,3.7-8.8,4.4c-1.1,0.3-2.3,0.4-3.4,0.5
			C94.8,68.9,94.5,68.9,94.2,68.5z"/>
		<path class="st0" d="M95.6,70.5c0.2-0.1,0.4-0.2,0.6-0.2c0.9-0.1,1.8-0.2,2.7-0.3c2.1-0.3,4.1-0.7,6-1.4c0.6-0.2,1.2-0.4,1.8-0.7
			c0.5-0.2,0.7-0.2,1.1,0.1c0,0.3-0.3,0.6-0.5,0.8c-0.5,0.3-1,0.7-1.6,0.9c-1.7,0.7-3.4,1.1-5.1,1.4c-1.5,0.2-2.9,0.1-4.3-0.1
			C95.9,70.9,95.7,70.9,95.6,70.5z"/>
		<path class="st0" d="M105.5,72.3c-0.2,0.4-0.4,0.5-0.7,0.7c-1,0.4-2,0.5-3.1,0.4c-0.9-0.1-1.8-0.2-2.6-0.3c-0.3,0-0.5-0.1-0.7-0.2
			c-0.2-0.1-0.3-0.2-0.5-0.3c0.2-0.3,0.5-0.3,0.7-0.3c1.4-0.1,2.9-0.1,4.2-0.2c0.5,0,1-0.1,1.5-0.1C104.8,72,105.2,72,105.5,72.3z"
			/>
	</g>
</g>
</svg>
