<?xml version="1.0" encoding="utf-8"?>
<!-- Generator: Adobe Illustrator 23.0.2, SVG Export Plug-In . SVG Version: 6.00 Build 0)  -->
<svg version="1.1" xmlns="http://www.w3.org/2000/svg" xmlns:xlink="http://www.w3.org/1999/xlink" x="0px" y="0px"
	 viewBox="0 0 378.5 399.7" style="enable-background:new 0 0 378.5 399.7;" xml:space="preserve">
<g id="BACKGROUND">
</g>
<g id="OBJECTS">
	<g>
		<path d="M165.9,60.4c-1.2,0.1-2,0.2-2.7,0.3c-6.8,1.3-13.4,3.2-19.7,6c-1.5,0.7-3.1,1-4.6,1.5c-0.4,0.1-0.8,0.2-1.3,0.2
			c-1.3-0.1-2.7-0.1-3.4-1.4c-0.7-1.4,0.2-2.6,1.1-3.4c2-1.6,4-3.2,6.2-4.4c5.6-2.9,11.7-4.6,17.9-6c2.9-0.6,5.9-1.1,8.8-1.5
			c1.5-0.2,2.3-0.7,2.9-2.1c2.2-4.8,4.5-9.5,6.8-14.3c2.6-5.4,5.3-10.7,8.9-15.5c1-1.3,2-2.6,3.2-3.6c2.2-1.9,4.7-2.3,7.4-1.4
			c1.6,0.5,2.1,1.2,2,2.8c-0.1,1.2-0.3,2.4-0.7,3.5c-2.7,8.4-5.5,16.8-8.3,25.3c-0.4,1.1-0.7,2.2-1.2,3.6c0.7,0.1,1.1,0.2,1.6,0.2
			c13.4,0.2,26.8,0.4,40.2,0.6c11.6,0.2,23.2-0.4,34.6-2.7c6.2-1.3,12.2-3.1,17.8-6.2c4.5-2.5,8.2-5.8,10.4-10.6
			c0.9-2,1.5-4.2,1.4-6.4c-0.1-5-3.8-8.8-8.8-8.6c-2.5,0.1-5.1,0.5-7.5,1.4c-4.7,1.8-9.3,3.8-13.8,5.9c-3.2,1.5-6.3,3.3-9.7,5.1
			c0.6,0.5,0.9,0.9,1.4,1.1c2.3,1.3,4.6,2.5,7,3.8c2.4,1.3,4.8,1.6,7.4,0.9c1.2-0.3,2.5-0.4,3.8-0.3c0.9,0,1.9,0.3,2.7,0.7
			c1.9,0.9,2.1,2.2,0.4,3.6c-2.3,1.9-5,3-7.9,3.5c-6.5,1.2-12.7,0.1-18.8-2.3c-2.5-1-5-2.3-7.3-3.7c-1.6-1-2.8-1-4.5-0.4
			c-6,2.2-12.2,3.9-18.6,4.6c-3.5,0.4-7,0.2-10.4-0.5c-9.1-2-9.7-9.1-7.8-14.6c1.6-4.5,4.8-7.5,9.1-9.2c9.6-3.7,19-3.3,28.1,1.8
			c2.1,1.2,4,2.6,6.1,4.1c0.9-0.4,1.8-0.9,2.8-1.4c7.7-4.1,15.6-7.8,24.1-9.8c8-1.9,16-2.6,24.1-0.8c4.5,1,8.6,2.7,12.2,5.6
			c5.5,4.4,7.2,10.2,4.9,16.9c-1.6,4.6-4.4,8.4-8.3,11.5c-4.8,3.8-10.3,6.4-16,8.5c-8.7,3.2-17.7,5-26.9,6.2
			c-17.1,2.2-34.2,1.8-51.3,1.2c-7.7-0.3-15.3-0.5-23-0.7c-0.9,0-1.9,0-2.6,0c-0.3,0.3-0.5,0.4-0.5,0.5c-5.8,13.7-11.7,27.3-17.2,41
			c-4.7,11.9-7.5,24.2-8.3,37c-0.3,5.2,0,10.4,1.2,15.5c0.2,1,0.6,1.9,1.1,3.2c0.9-0.8,1.5-1.4,2-2c4.7-5,8.5-10.7,11.7-16.7
			c2.2-4.1,4.1-8.5,6.5-12.5c2.7-4.5,5.7-8.9,8.7-13.2c1-1.5,1.5-3,1.8-4.7c1-5.9,2.8-11.6,5.8-16.8c4.7-8.4,11.4-14.4,21-16.6
			c6.1-1.4,12.2-1.4,18.1,0.7c2.4,0.9,4.6,2.2,7,3.4c0.7-1.1,1.4-2.4,2.3-3.5c1.8-2.3,3.6-4.7,5.8-6.8c2.2-2.2,5-3.3,8.1-3.1
			c3.5,0.2,5.2,2,4.9,5.5c-0.2,2.1-0.6,4.2-1.2,6.3c-1.8,5.7-3.7,11.3-5.5,17c-1.7,5-3.1,10.1-3.7,15.4c-0.3,2.5-0.5,5,0.2,8
			c0.9-1.1,1.6-1.8,2.2-2.6c4.7-6.5,8.3-13.7,11.7-21c0.8-1.7,1-3.6,1.6-5.4c0.8-2.4,1.6-4.8,2.7-7.2c1.7-3.7,4.5-6.3,8.1-8.2
			c2.7-1.4,5.3-1.1,7.9-0.1c2,0.8,2.3,2.6,2.1,4.5c-0.3,2.5-0.7,5.1-1.1,7.6c-0.7,4.6-1.3,9.3-2,13.9c-0.1,0.7,0,1.3,0,2.6
			c0.9-1.1,1.5-1.7,2-2.4c7-9.3,13.2-19.1,18.7-29.3c1.1-2.1,2.4-4.1,3.7-6.1c0.9-1.4,2.2-2.1,3.7-2.5c2.7-0.7,5.4-0.7,8.1,0.2
			c2.7,0.8,3.5,1.9,3,4.7c-1.4,7.5-2.8,15.1-4.5,22.6c-3.1,13.9-6.4,27.7-9.6,41.6c-0.1,0.6-0.2,1.1-0.3,1.8c0.3,0,0.6,0.2,0.8,0.1
			c8.1-2.7,15.6-6.4,22.1-12c4.9-4.3,8.5-9.5,10.5-15.8c1.6-4.9,1.3-9.8-1-14.4c-0.9-1.9-2-3.7-3.1-5.6c-0.4-0.7-1-1.4-1.3-2.2
			c-1.1-2.2-0.7-3.8,1.4-5c1.3-0.8,2.8-1.3,4.3-1.6c10.3-1.9,18.6,3,23.3,12.2c3.2,6.3,3.4,12.9,0.5,19.5c-3,6.7-7.5,12.2-13.2,16.7
			c-9.5,7.6-20.3,12.5-31.8,16c-4.3,1.3-8.8,2.2-13.1,3.2c-0.8,0.2-1.6,0.4-2.4,0.6c-1.6,3.9-3,7.8-4.6,11.5
			c-2.8,6.3-6.1,12.4-10.4,17.8c-9.6,12-21.8,19.7-37.1,22c-6.9,1-13.8,0.8-20.5-1.2c-2.8-0.9-5.4-2.1-7.7-3.9
			c-5.3-4.1-7.4-9.5-6.2-16c1.2-6.8,4.6-12.6,9.3-17.6c6.1-6.4,13.8-10.2,22.1-12.7c8.3-2.6,16.9-3.9,25.5-5.1
			c4-0.6,7.9-1.1,11.9-1.6c1.3-0.2,2.1-0.6,2.5-2c2-7.2,4-14.4,6.2-22.2c-9.5,7.8-18.9,7.8-28.7,2c-1.3,1.6-2.6,3.4-4,5.1
			c-5.1,6.1-11.6,8.4-19.4,7.2c-4.1-0.7-7.3-2.7-9.5-6.3c-0.2-0.3-0.4-0.5-0.6-0.8c0-0.1-0.1-0.1-0.3-0.2c-1.4,1.8-2.7,3.6-4.1,5.5
			c-3.2,4.2-6.9,7.8-11.4,10.6c-5.4,3.4-11.3,4.6-17.6,3.4c-3.5-0.7-6.5-2.4-9.3-5c-0.5,0.9-0.9,1.7-1.4,2.5
			c-2.8,4.8-5.5,9.6-8.6,14.2c-2.6,4-6.1,7.4-9.7,10.5c-6.4,5.4-13.7,6.6-21.6,4.7c-5.4-1.3-9.1-4.8-11.7-9.6
			c-2.3-4.3-3.3-8.9-3.5-13.8c-0.4-11.5,1.6-22.6,4.8-33.5c3.5-11.9,8.5-23.2,13.9-34.3C161.4,69.6,163.5,65.3,165.9,60.4z
			 M291.6,145.9c-1.1,0.1-1.8,0-2.5,0.1c-5.6,0.8-11.1,1.6-16.6,2.6c-5.6,1-11.1,2.7-16.1,5.5c-5,2.9-9.3,6.6-12.1,11.7
			c-1.8,3.3-2.9,6.7-3,10.4c-0.2,5.6,5.4,12.3,13,10.3c5.7-1.5,10.8-4,15.4-7.7c6.6-5.4,11.7-12.1,15.9-19.5
			C287.8,155.2,289.8,150.8,291.6,145.9z M211.3,132.2c3.4-1.7,6.5-4.4,9.7-8.5c5.7-7.1,10.3-14.8,14.5-22.8
			c1.1-2.1,1.5-4.2,1.2-6.6c-0.6-5.2-2.3-9.8-6.6-13.1c-1.5-1.2-3-1.6-4.7-0.5c-1.5,1-3,1.9-4.4,3.1c-2.7,2.4-4.7,5.4-6.4,8.5
			c-3.5,6.7-5.7,13.8-6.7,21.3c-0.6,4.1-0.9,8.3,0,12.4C208.6,128.4,209.4,130.5,211.3,132.2z M234,28.1c-2.4-2.5-4.5-4.8-6.6-6.9
			c-1.7-1.7-3.8-2.6-6.3-2.1c-3.5,0.7-6.3,2.5-8.2,5.6c-1.4,2.3-1.7,4.8-0.6,7.4c0.7,1.6,2.3,3.3,4.7,2.5c1-0.3,2-0.4,3-0.7
			C224.8,32.4,229.3,30.6,234,28.1z"/>
		<path d="M115.6,111c-0.1-11.1-1.6-22.1-3.4-33c-2-12.3-3.9-24.6-5.6-36.9c-0.9-7.1-0.8-14.3,1.2-21.3C111,8.2,120.7,0.5,132.7,0
			c3.6-0.1,7.2,0,10.6,1.1c8.6,2.7,13.6,8.6,15,17.4c0.9,5.2,0.1,10.2-2.8,14.7c-0.9,1.4-2,2.8-3.3,3.9c-1.6,1.5-3.7,2.1-5.9,1.6
			c-1.9-0.4-2.6-1.2-2.6-3.2c0-1.7,0.1-3.4,0.2-5.1c0.1-4.6-0.3-9-1.9-13.3c-1.1-3.2-2.8-6-5.5-8.2c-1.7-1.4-2-1.4-3.8-0.2
			c-3.2,2.1-5.5,5.1-6.9,8.7c-1.7,4.1-2.4,8.3-2.6,12.7c-0.3,7.5,0.5,15,1.8,22.4c2.2,13,4.6,26,6.6,39.1
			c2.2,14.6,2.3,29.2-0.2,43.8c-1.6,9.4-4.9,18.3-9.8,26.5c-8.2,13.8-20.7,21.9-35.9,26c-10.1,2.8-20.4,3.1-30.6,0.6
			c-7.4-1.8-14-5.3-18.7-11.3c-14.6-18.6-19.7-39.3-12.3-62.1c3.8-11.7,11.3-20.8,22.7-26c7.5-3.5,15.4-4.3,23.5-2.7
			c9.6,1.8,16.1,7.5,19.6,16.5c2.9,7.5,4.1,15.4,3.1,23.4c-1,8.4-8.1,14-17.6,11c-1.9-0.6-3-2-3.7-3.9c-1.3-3.4-1.2-6.8-0.8-10.3
			c0.5-5,0.3-9.9-0.8-14.8c-0.6-2.6-1.5-5.2-2.7-7.7c-0.9-1.8-2.3-3.4-3.5-5c-1-1.3-2.4-1.7-3.8-0.7c-2.3,1.5-4.7,2.9-6.7,4.7
			c-5.2,4.7-8.4,10.7-10.3,17.4c-5.4,19.2-1.9,36.9,9.3,53.3c1.9,2.8,4.3,5.3,7.1,7.3c4.3,3.1,9.1,4.2,14.3,3
			c14.1-3.4,24.6-11.7,31.7-24.3c4.5-8,7-16.8,8.6-25.8C115.1,123.9,115.7,117.5,115.6,111z"/>
	</g>
	<g>
		<path d="M200.1,281c0.6-1,1.1-1.8,1.5-2.6c5.1-9.3,11-18,17.9-26.1c3.7-4.4,8-8.1,13.1-10.9c3.1-1.7,6.4-2.6,10-2.5
			c6.9,0.1,11.3,3.8,12,10.8c0.4,3.4,0.1,7-0.2,10.4c-0.7,7.8-2.8,15.2-5.4,22.6c-0.2,0.7-0.5,1.4-0.4,2.4c0.5-0.7,1-1.3,1.6-2
			c7.2-8.8,14.3-17.6,21.6-26.3c3.7-4.5,8-8.4,12.6-11.9c3.5-2.7,7.2-4.8,11.4-6.2c3.8-1.2,7.6-1.2,11.3-0.1c3.5,1,5.7,3.3,6.5,6.9
			c0.9,4.3,0.7,8.6-0.3,12.9c-1.8,7.1-4.5,14-7.6,20.6c-4.6,9.7-9.5,19.3-14,29c-3.6,7.7-6.9,15.6-10,23.5c-1.2,3.1-1.6,6.6-2.1,10
			c-0.4,2.5,0.1,4,1.4,6.1c1.2-0.8,2.5-1.4,3.5-2.4c3-2.9,6-5.8,8.7-9c7.9-9.5,14.5-20,20.7-30.7c3-5.2,5.9-10.4,9.9-14.9
			c0.6-0.7,1-1.6,1.3-2.5c3.4-7.3,7.7-14,12.7-20.3c2-2.5,4.2-4.9,6.7-7c6.6-5.4,14-5.3,21.4-1.8c5.5,2.6,7.7,9.2,5.1,14.6
			c-1.1,2.3-2.7,4.6-4.5,6.4c-6.2,6.5-13.9,9.6-22.9,9.6c-0.8,0-1.5,0-2.4,0c-0.2,0.3-0.5,0.5-0.6,0.8c-3.9,9.3-6.7,18.9-7.8,29
			c-0.3,2.7-0.1,3.2,1.4,5c2-0.2,3.6-1.2,5.1-2.5c3.4-3,6.2-6.5,8.8-10.2c3-4.2,6-8.3,9-12.4c2.1-3,4.9-3.9,8.3-3.2
			c3.3,0.7,6.6,1.8,9.8,2.8c0.6,0.2,1.3,0.5,1.8,0.9c1.7,1.2,2,2.4,1,4.2c-0.9,1.6-2,3.2-3.2,4.6c-6.6,7.8-14.4,14.3-22.8,20
			c-6.1,4.1-13,5.6-20.3,4.7c-5.6-0.7-10.5-2.9-14.2-7.8c-0.6,0.8-1.1,1.5-1.6,2.2c-4.3,6.1-8.6,12.1-14,17.3
			c-3.1,3-6.4,5.6-10.3,7.5c-4.5,2.2-9.2,2.9-14.2,1.8c-2.9-0.6-5.4-1.9-7.7-3.9c-2.9-2.5-4-5.8-4.1-9.6c-0.1-4.3,0.7-8.5,2.3-12.5
			c3.3-8,6.8-16,10.5-23.9c5.9-12.7,12.1-25.2,18-37.9c2.6-5.5,4.6-11.2,5.6-17.2c0.3-1.7,0.4-3.3-0.2-5.4c-0.8,0.5-1.5,0.8-2,1.2
			c-2.8,2.3-5.5,4.6-8.2,6.9c-11.6,9.7-21.6,20.9-29.7,33.6c-5.6,8.7-10.9,17.5-16.4,26.3c-4.5,7.2-9.2,14.3-13.8,21.5
			c-1.1,1.7-2.3,3.4-3.3,5.1c-0.8,1.5-2,2.2-3.7,2.4c-3.8,0.5-7.7,0.4-11.4-0.4c-3.9-0.9-5-2.8-3.7-6.6c1.7-4.8,3.6-9.6,5.7-14.2
			c5.3-12,10.4-24.1,14.6-36.5c2.7-8.2,5.3-16.4,7.7-24.6c0.7-2.5,0.9-5.2,1.2-7.8c0.2-1.4,0-2.7-1.3-4c-0.7,0.5-1.5,1-2.1,1.7
			c-4.4,4-8.3,8.3-11.4,13.4c-4.7,7.5-9.6,15-13,23.2c-2.9,7.2-5.4,14.6-7.9,21.9c-3.4,9.8-6.9,19.6-10.2,29.5c-0.9,2.6-2.5,3.9-5,4
			c-4.3,0.1-8.7-0.1-13-0.2c-0.8,0-1.7-0.4-2.4-0.7c-2-0.9-2.6-2-2.1-4.1c0.7-2.7,1.5-5.4,2.4-8.1c3.3-9.9,6.8-19.8,10-29.8
			c1-3.1,1.6-6.4,2.3-9.7c0.5-2.6,0.4-5.1-0.8-7.5c-0.9-1.8-1.3-2-3.2-1.5c-0.2,0-0.3,0.1-0.5,0.1c-2.7,0.8-2.8,0.8-2.8,3.6
			c-0.1,6.9-1.5,13.6-3.2,20.2c-2.6,9.7-5.8,19.1-11.3,27.6c-4.6,7.3-10,13.8-17.4,18.5c-7.1,4.5-14.8,5.8-23,3.8
			c-0.6-0.1-1.2-0.2-1.8-0.3c-9.4-1.3-14.5-6.7-15.6-16.1c-1.1-9.1-0.1-18,2.5-26.8c2.4-8,5.7-15.5,10.2-22.5c1.8-2.8,3.9-5.4,6-8
			c0.6-0.8,0.9-1.5,0.8-2.5c-2.3-15,8-27.2,23.2-27.4c4.8-0.1,9.3,0.9,13.5,3.3c0.5,0.3,1.1,0.6,1.6,0.8c7.4,3.4,11.5,9.3,13.4,17
			c0.2,0.7,0.3,1.5,0.5,2.2c0,0.2,0.2,0.3,0.3,0.4c2.6-0.1,5.3-0.4,7.9-0.2c2.4,0.2,4.9,0.7,7.2,1.5c3,1,5.3,3,6.9,5.8
			C199.4,280,199.7,280.4,200.1,281z M134.1,289.2c-0.3,0.4-0.5,0.7-0.7,1c-6.2,13.1-8.9,26.9-8.6,41.4c0.1,3.7,0.6,7.3,2.3,10.6
			c0.3,0.6,0.9,1.5,1.4,1.6c3.1,0.9,6.3,0.8,8.4-2.4c2.1-3.1,4.3-6.2,6.1-9.4c6.4-11.9,11.1-24.5,13.7-37.8c0.1-0.7,0.2-1.5,0.3-2.4
			C149,293.8,141.5,293,134.1,289.2z M158.9,275c0.2-4.9-0.2-9.7-2.3-14.2c-1.2-2.5-2.9-4.6-5.4-6c-1.7-0.9-3.4-1.1-5.1-0.3
			c-4.9,2.5-9.8,8-8.3,15.5c0.2,0.8,0.3,1.5,1.2,1.8c1.4,0.5,1.4,1.4,1,2.7c-0.2,0.8-0.5,1.7-0.2,2.4c0.8,2.5,2.2,4.6,4.2,6.3
			c2,1.5,4.1,2.4,6.7,1.6c2.2-0.7,4.3-1.5,6.5-2.1c1.2-0.3,1.7-1.1,1.7-2.2C158.9,278.6,158.9,276.8,158.9,275z M358.1,262.5
			c-2.8,1.5-4.7,3.6-6.1,6.1c-2.6,4.5-5.1,9-7.7,13.5c-0.3,0.5-0.4,1-0.7,1.8c0.7-0.2,1.1-0.3,1.5-0.5c4.5-2.4,8.5-5.4,11.4-9.6
			c1-1.4,1.7-2.9,2.3-4.5C359.5,267.1,359.5,264.8,358.1,262.5z"/>
		<path d="M15.2,298.6c0.6-4.5,1.2-8.9,1.9-13.4c1.6-10.4,3.2-20.7,4.9-31.1c0.7-4.3,1.6-8.5,2.3-12.8c0.3-1.6,1-2.5,2.5-2.9
			c0.4-0.1,0.8-0.3,1.2-0.3c4.5,0,9-0.2,13.5,0c2.2,0.1,2.9,1,2.8,3.4c-0.1,2-0.4,4.1-0.8,6.1c-3.3,14.3-6.3,28.6-8.3,43.2
			c-0.4,2.7-0.7,5.4-1.1,8.4c8.7,1.2,17.2,3,26.1,2.4c0.4-3.2,0.9-6.2,1.3-9.3c2.3-16.8,5.4-33.5,9-50.1c0.9-4.2,1.9-8.5,2.8-12.7
			c0.7-3.3,1.8-4.4,5.1-4.8c1.3-0.2,2.7-0.2,4.1-0.1c2.5,0.2,4.9,0.5,7.4,0.7c3.8,0.4,5.1,1.6,5,5.4c-0.2,5.6-0.5,11.3-1.3,16.8
			c-2,13.4-4.3,26.8-6.5,40.1c-0.1,0.7-0.2,1.5-0.4,2.7c0.8-0.6,1.4-1,1.9-1.4c1.8-1.8,3.5-3.7,5.4-5.5c2.9-2.7,6.3-4.4,10.4-4
			c0.6,0.1,1.2,0.1,1.8,0.3c2.9,0.9,4,3.4,2.5,6.1c-1.9,3.4-4.3,6.4-7.1,9c-4.4,4.2-9.5,7.2-15.1,9.4c-1.7,0.7-2.4,1.6-2.8,3.4
			C81,321.3,78,335,75.2,348.7c-0.5,2.5-1,5-1.2,7.6c-0.1,1.7-0.8,2.7-2.4,3.1c-4.8,1.1-9.6,1.4-14.5,0.8c-3.2-0.4-3.9-1.8-3.8-4.9
			c0.5-12,3.1-23.6,4.5-35.5c0.4-3.3,0.8-6.6,1.2-10.1c-8.8-0.1-17.3-1.4-25.9-3.1c-0.4,2.4-0.7,4.7-1.1,6.9
			c-2.3,13.5-4.6,27-6.8,40.6c-0.5,2.8-0.5,5.8-0.7,8.7c-0.2,2.7-0.8,3.6-3.6,4.1c-3.9,0.7-7.7,1.1-11.7,0.1c-3.1-0.8-4-1.6-3.6-4.8
			c0.7-6.9,1.5-13.9,2.6-20.8c1.8-11.5,3.8-23,5.7-34.6c0.1-0.6,0.1-1.1,0.1-1.8c-2.5-0.3-4.7,0.3-6.9,1.1c-1.7,0.6-3.4,1.1-5.2,0.6
			c-0.9-0.3-2-0.5-2-1.6c0-0.7,0.5-1.7,1.1-2.1c1.7-1,3.4-2,5.2-2.5C9.1,299.7,12,299.2,15.2,298.6z"/>
		<path d="M300.3,379.5c-13-0.8-26.1-1.5-39.1-2.5c-14.9-1.1-29.8-0.5-44.6,0.2c-13.1,0.6-26.3,1-39.4,1.7
			c-16.5,0.8-33,1.7-49.5,2.6c-17.5,1-34.9,2-52.4,3c-14.2,0.9-28.3,2-42.5,2.9c-5.7,0.4-11.4,0.7-17.1,1.2c-2.9,0.2-5-0.5-6.8-2
			c-5.9-4.7-5-8.2,3.2-10c5.4-1.2,11.1-1.9,16.7-2.4c20.3-1.9,40.7-3.5,61.1-5.5c21.1-2,42.2-3.5,63.5-4.6
			c14.9-0.8,29.9-1.4,44.8-2.2c12-0.6,24-1.5,36-2.1c10.9-0.5,21.9-0.7,32.9-0.8c7.9-0.1,15.9,0.2,23.8,0.3
			c16.4,0.3,32.7,1.3,49,2.9c6.8,0.7,13.5,1.6,20.1,3.3c2.4,0.6,4.1,1.6,5.1,3.2c2.6,3.8,2.9,7.8,1.8,11.9c-0.5,1.8-2.3,2.8-4.9,2.8
			c-4.4,0-8.8,0-13.2-0.4c-16.2-1.2-32.4-2.4-48.6-3.7C300.3,379.4,300.3,379.4,300.3,379.5z"/>
	</g>
	<path d="M143.1,203.6c1.3-2.2,2.4-4.3,3.7-6.1c2.1-2.9,5.2-3.7,8.6-3c2,0.4,2.8,1.4,2.6,3.4c-0.1,1-0.3,2-0.6,3
		c-1.5,6.2-3.1,12.4-4.4,18.7c-0.5,2.2-0.3,4.6-0.3,6.9c0,0.8,0.4,1.6,0.6,2.4c4.9-3.2,17.7-23.1,20.3-31.4
		c-0.7-0.1-1.3-0.2-1.9-0.3c-2.3,0-4.6,0.1-6.9-0.1c-1.4-0.1-2.8-0.6-4.1-1.2c-1-0.5-1-1.4-0.1-2.1c0.9-0.6,1.9-1.2,3-1.4
		c3.6-0.6,7.2-1.1,10.9-1.4c1.5-0.1,2.2-0.6,2.9-1.9c2-3.6,4.2-7.2,6.5-10.7c2.2-3.2,6.2-3.6,9.2-1.3c1,0.8,1.3,1.8,1.1,3
		c-0.4,2.3-0.9,4.5-1.4,6.7c-0.2,1.1-0.6,2.1-1,3.4c2.5,0,4.6-0.9,6.8-1.6c2.3-0.7,4.5-1.6,6.9-1.9c2.2-0.3,4.4,0,6.6,0.2
		c0.7,0.1,1.5,0.4,2.1,0.9c1.8,1.1,1.9,2.6,0.3,3.9c-0.9,0.7-2,1.3-3.1,1.8c-5.7,2.6-11.7,3.7-17.8,4.1c-1.4,0.1-2.9,0.2-4.5,0.2
		c-0.8,2.6-1.6,5.1-2.2,7.6c-0.8,3.7-1.6,7.3-2,11c-0.3,2.1,0,4.2,0.2,6.4c0.1,1.5,0.8,2.8,2.3,3.6c2-0.6,3.5-2.1,4.7-3.6
		c1.4-1.8,2.6-3.8,3.9-5.7c2.2-3.2,4.3-6.3,6.5-9.5c1.1-1.6,2.5-2.6,4.4-2.7c2.1-0.2,3.2,0.8,3.4,2.9c1.4,13.6-13.4,26.3-26.8,23.1
		c-4-1-7.2-3-9.4-6.5c-0.6-0.9-1.2-1.8-1.9-3c-0.7,1-1.1,1.8-1.7,2.5c-2,2.4-3.8,4.9-6,6.9c-4.7,4.4-10.3,5.3-16.4,4
		c-2.6-0.6-4.7-1.9-6.3-4.3c-0.5,0.4-0.9,0.8-1.4,1.2c-5,4.3-10.6,5.7-16.9,3.9c-4.4-1.2-6.8-4.3-7.6-8.7c-1.4-8,3.6-20.8,16.3-23.7
		C135.9,202.4,139.5,202.6,143.1,203.6z M129.5,230.5c0.5-0.3,0.8-0.4,1.1-0.6c0.5-0.5,1-0.9,1.5-1.4c3.4-3.6,5.8-7.8,7.7-12.3
		c1.2-2.8,0.8-5-1.3-7.2c-0.9-0.9-1.8-1.3-2.9-0.5c-1.1,0.9-2.4,1.7-3.3,2.8c-3.4,4-5,8.7-4.5,14
		C127.9,227.1,128.2,228.9,129.5,230.5z"/>
	<g>
		<path d="M23.2,172.5c0.4,0.7,0.7,1.1,0.9,1.6c3,8,8.8,13.7,15.5,18.8c0.8,0.6,1.7,1.1,2.5,1.7c4.8,3.4,10.1,5.4,15.9,6.1
			c1.3,0.2,2.7,0.7,3.9,1.2c1.2,0.5,1.7,1.5,1.6,2.8c-0.1,1.2-0.6,1.7-2,2.1c-1.4,0.4-2.8,0.5-4.2,0.3c-4.8-0.6-9.3-2-13.5-4.4
			c-8.1-4.7-14.5-11.2-18.9-19.5c-1.2-2.3-2-4.8-2.3-7.4C22.4,174.7,22.3,173.7,23.2,172.5z"/>
		<path d="M16.2,186.4c0.6,0.5,1.2,0.9,1.7,1.5c0.9,1,1.7,2,2.6,3c6.1,7,13.3,12.5,22.2,15.7c1.3,0.5,2.7,1,4,1.4
			c3.2,1.2,6.6,1.7,10,1.8c1.4,0,2.8,0.3,4.3,0.4c0.6,0.1,1.1,0.5,1.2,1.1c0.1,0.7-0.1,1.3-0.7,1.6c-1.1,0.4-2.2,0.9-3.3,1
			c-4.4,0.5-8.7,0-12.9-1.2c-8.8-2.5-16.5-6.9-22.8-13.5c-2.3-2.4-4.3-5-5.8-7.9c-0.4-0.9-0.8-1.9-1-2.8c-0.1-0.6,0-1.3,0.1-2
			C15.9,186.6,16,186.5,16.2,186.4z"/>
		<path d="M20.6,208.6c0.6,0.2,1.2,0.4,1.7,0.7c2.1,1,4.2,2.1,6.3,3c6,2.5,12.4,3.5,18.9,3.8c3.6,0.1,7.2,0.4,10.8,0.6
			c0.3,0,0.6,0,0.9,0.1c0.9,0.2,1.4,0.6,1.5,1.4c0.1,1-0.6,1.1-1.2,1.4c-3.3,1.1-6.6,1.8-10.1,1.4c-4.2-0.5-8.4-1-12.6-1.7
			c-4.6-0.8-8.8-2.6-12.7-5.3c-1.1-0.8-2.1-1.8-3-2.8C20.4,210.3,20.4,209.9,20.6,208.6z"/>
		<path d="M27,221.4c0.6,0,0.9-0.1,1.3,0c5.3,0.5,10.5,1,15.8,1.5c0.6,0.1,1.2,0.2,1.7,0.3c0.6,0.2,1,0.6,1,1.3c0.1,0.7-0.4,1-1,1.2
			c-2.3,0.7-4.6,1.3-7,1.1c-3.4-0.3-6.7-1.2-9.8-2.6c-0.9-0.4-1.7-0.9-2-1.9C26.9,222.1,27,221.9,27,221.4z"/>
	</g>
	<g>
		<path d="M284.6,208.6c0.5-0.5,0.9-1,1.4-1.4c1.2-0.9,2.4-1.8,3.6-2.6c2.9-2.1,5.8-4,8.5-6.3c7.1-6,13.6-12.6,19.5-19.9
			c1.7-2,3.5-3.9,5.3-5.9c0.4-0.4,0.9-0.8,1.5-1c1.4-0.5,2.5,0.3,2.1,1.8c-0.2,0.9-0.5,1.7-0.9,2.5c-2,4.4-4.6,8.4-7.8,12
			c-5.5,6.3-11.6,11.9-18.3,16.9c-3.1,2.3-6.5,3.8-10.2,4.8c-0.8,0.2-1.7,0.3-2.5,0.3C286,209.8,285.3,209.6,284.6,208.6z"/>
		<path d="M291.7,215.4c0.6-0.5,1-0.8,1.5-1.1c1.5-0.9,3-1.8,4.5-2.6c8-4,14.7-9.6,21.1-15.8c4-3.9,8-8,12-11.9
			c0.8-0.8,1.7-1.5,2.6-2.2c0.9-0.7,2-0.9,3.1-0.6c1.4,0.3,1.9,1.2,1.4,2.6c-0.3,0.7-0.6,1.3-1.1,1.9c-1.5,1.9-2.9,3.9-4.6,5.7
			c-6.6,7.1-14,13.4-22.2,18.7c-4.4,2.9-9.1,5.1-14.3,6C294.3,216.2,293,216.5,291.7,215.4z"/>
		<path d="M278,201.6c1.5-1.3,2.8-2.5,4.1-3.7c1.2-1.1,2.4-2.1,3.7-3.2c4.9-4.1,8.9-8.9,12.3-14.2c2.1-3.3,4.2-6.7,6.3-10
			c0.2-0.4,0.4-0.7,0.7-1c0.5-0.6,1.2-0.7,2-0.5c0.7,0.2,1.1,0.7,1.1,1.5c0,1,0,1.9-0.2,2.9c-1.3,5.9-4,11.1-7.8,15.8
			c-1.7,2.2-3.5,4.2-5.4,6.3c-3.6,3.9-8.2,6-13.2,7.3C280.5,203,279.2,202.9,278,201.6z"/>
		<path d="M299.7,220.5c0.7-0.4,1.3-0.8,1.8-1c2.2-0.8,4.5-1.6,6.7-2.4c3-1.1,6.2-2,9-3.5c5.1-2.6,10-5.5,14.9-8.3
			c2.8-1.6,5.4-3.3,8.2-4.9c1-0.6,2-1.1,3.1-1.4c0.7-0.2,1.5-0.2,2.3,0c0.9,0.2,1.1,0.8,0.7,1.7c-0.2,0.4-0.4,0.9-0.7,1.2
			c-1.2,1.3-2.3,2.7-3.6,3.7c-8.6,6.6-18,11.7-28.5,14.5c-3.6,1-7.3,1.3-11,1.5C301.6,221.7,300.6,221.7,299.7,220.5z"/>
		<path d="M304,227c0.7-0.2,1.3-0.5,2-0.6c2.8-0.4,5.7-0.7,8.6-1c6.7-0.8,13.2-2.3,19.5-4.6c1.9-0.7,3.8-1.4,5.7-2.1
			c1.7-0.6,2.2-0.5,3.6,0.4c-0.1,1.1-0.8,1.9-1.6,2.4c-1.6,1.1-3.3,2.2-5.1,3c-5.3,2.3-10.9,3.6-16.6,4.4c-4.7,0.7-9.3,0.2-14-0.4
			C305.4,228.4,304.4,228.3,304,227z"/>
		<path d="M336.5,232.9c-0.5,1.3-1.4,1.7-2.3,2.1c-3.2,1.3-6.5,1.7-9.9,1.4c-2.8-0.2-5.6-0.6-8.4-1c-0.8-0.1-1.5-0.3-2.2-0.7
			c-0.6-0.3-1-0.7-1.5-1.1c0.6-1,1.5-0.8,2.2-0.9c4.6-0.2,9.2-0.4,13.8-0.6c1.6-0.1,3.2-0.3,4.8-0.3
			C334.2,231.8,335.4,232,336.5,232.9z"/>
	</g>
</g>
</svg>
